<svg width="105" height="66" viewBox="0 0 105 66" fill="none" xmlns="http://www.w3.org/2000/svg">
<g filter="url(#filter0_d_130_1941)">
<rect width="105" height="60" rx="30" fill="white"/>
</g>
<path d="M30.332 19.672C24.62 19.672 21.652 22.556 21.652 29.276V30.592C21.652 37.312 24.62 40.196 30.332 40.196C32.544 40.196 34.476 39.748 35.848 39.132C36.884 38.656 37.248 38.04 37.248 36.808V31.068C37.248 29.472 36.716 28.968 35.092 28.968H30.696C29.996 28.968 29.688 29.5 29.688 30.144C29.688 30.788 29.996 31.348 30.696 31.348H34.476V36.836C33.356 37.396 32.096 37.648 30.444 37.648C26.188 37.648 24.48 35.604 24.48 30.368V29.5C24.48 24.292 26.244 22.22 30.304 22.22C32.264 22.22 33.608 22.64 34.784 23.368C35.344 23.732 35.988 23.592 36.408 22.976C36.828 22.36 36.772 21.632 36.128 21.184C34.756 20.288 32.936 19.672 30.332 19.672ZM47.5719 19.672C42.1959 19.672 39.2559 22.752 39.2559 29.276V30.592C39.2559 37.116 42.1959 40.196 47.5719 40.196C52.9479 40.196 55.8879 37.116 55.8879 30.592V29.276C55.8879 22.752 52.9479 19.672 47.5719 19.672ZM47.5719 22.22C51.2679 22.22 53.0599 24.32 53.0599 29.5V30.368C53.0599 35.548 51.2679 37.62 47.5719 37.62C43.8759 37.62 42.0839 35.548 42.0839 30.368V29.5C42.0839 24.32 43.8759 22.22 47.5719 22.22Z" fill="#999999"/>
<path d="M76.5 22L85 30L76.5 38" stroke="#999999" stroke-width="2" stroke-linecap="round" stroke-linejoin="round"/>
<path d="M68 30H85" stroke="#999999" stroke-width="2" stroke-linecap="round" stroke-linejoin="round"/>
<defs>
<filter id="filter0_d_130_1941" x="0" y="0" width="105" height="66" filterUnits="userSpaceOnUse" color-interpolation-filters="sRGB">
<feFlood flood-opacity="0" result="BackgroundImageFix"/>
<feColorMatrix in="SourceAlpha" type="matrix" values="0 0 0 0 0 0 0 0 0 0 0 0 0 0 0 0 0 0 127 0" result="hardAlpha"/>
<feOffset dy="6"/>
<feComposite in2="hardAlpha" operator="out"/>
<feColorMatrix type="matrix" values="0 0 0 0 0 0 0 0 0 0 0 0 0 0 0 0 0 0 0.1 0"/>
<feBlend mode="normal" in2="BackgroundImageFix" result="effect1_dropShadow_130_1941"/>
<feBlend mode="normal" in="SourceGraphic" in2="effect1_dropShadow_130_1941" result="shape"/>
</filter>
</defs>
</svg>
