<svg width="46" height="46" viewBox="0 0 46 46" fill="none" xmlns="http://www.w3.org/2000/svg">
<path d="M43.4125 38.4387H2.51698C2.18608 38.44 1.85817 38.3758 1.5522 38.2499C1.24622 38.1241 0.968233 37.9392 0.734246 37.7055C0.500259 37.4719 0.314902 37.1942 0.188884 36.8887C0.062867 36.5832 -0.00131132 36.2558 2.03049e-05 35.9253C2.03049e-05 31.0193 2.01358 28.9382 3.86607 27.0985C4.18824 26.7768 4.52048 26.445 4.87285 26.0931C6.56425 24.2232 8.36639 21.7198 8.36639 15.6878C8.31515 13.738 8.65551 11.7977 9.36737 9.98127C10.0792 8.16487 11.1482 6.50914 12.5112 5.11193C13.8742 3.71472 15.5036 2.6043 17.3033 1.84606C19.103 1.08782 21.0366 0.697144 22.9899 0.697144C24.9433 0.697144 26.8768 1.08782 28.6766 1.84606C30.4763 2.6043 32.1057 3.71472 33.4687 5.11193C34.8317 6.50914 35.9006 8.16487 36.6125 9.98127C37.3243 11.7977 37.6647 13.738 37.6134 15.6878C37.6134 21.7198 39.4257 24.2232 41.1171 26.0931C41.4392 26.455 41.7715 26.7868 42.1239 27.0985C43.9461 28.9382 46 31.0193 46 35.9253C46.0015 36.2618 45.9351 36.5951 45.8047 36.9054C45.6743 37.2156 45.4826 37.4964 45.2411 37.7311C44.9996 37.9657 44.7132 38.1492 44.399 38.2708C44.0848 38.3924 43.7493 38.4495 43.4125 38.4387ZM5.38632 33.412H40.5432C40.0737 32.3379 39.3643 31.3853 38.4692 30.6272C38.1068 30.2552 37.7242 29.873 37.3416 29.4508C34.9757 26.8269 32.5493 23.1373 32.5493 15.6778C32.591 14.3941 32.3738 13.1152 31.9106 11.9171C31.4474 10.719 30.7477 9.62622 29.8532 8.70349C28.9586 7.78077 27.8873 7.04712 26.7031 6.54605C25.5189 6.04498 24.2459 5.78665 22.9597 5.78665C21.6736 5.78665 20.4005 6.04498 19.2163 6.54605C18.0321 7.04712 16.9609 7.78077 16.0663 8.70349C15.1717 9.62622 14.472 10.719 14.0088 11.9171C13.5457 13.1152 13.3285 14.3941 13.3701 15.6778C13.3701 23.1373 10.9538 26.8269 8.57781 29.4508C8.2053 29.873 7.82272 30.2552 7.45021 30.6272C6.55779 31.3854 5.85168 32.3382 5.38632 33.412Z" fill="white"/>
<path d="M22.9647 45.6971C20.3701 45.6945 17.8825 44.6641 16.0479 42.8321C14.2133 41.0001 13.1814 38.5162 13.1787 35.9253C13.1787 35.2587 13.4439 34.6194 13.9159 34.1481C14.3879 33.6767 15.0281 33.412 15.6957 33.412C16.3632 33.412 17.0034 33.6767 17.4754 34.1481C17.9474 34.6194 18.2126 35.2587 18.2126 35.9253C18.1831 36.5662 18.2839 37.2063 18.5092 37.8071C18.7344 38.4079 19.0793 38.957 19.523 39.4209C19.9667 39.8849 20.5 40.254 21.0907 40.5063C21.6814 40.7586 22.3172 40.8887 22.9596 40.8887C23.6021 40.8887 24.2378 40.7586 24.8285 40.5063C25.4192 40.254 25.9525 39.8849 26.3963 39.4209C26.84 38.957 27.1848 38.4079 27.4101 37.8071C27.6353 37.2063 27.7362 36.5662 27.7066 35.9253C27.7066 35.2587 27.9718 34.6194 28.4438 34.1481C28.9158 33.6767 29.556 33.412 30.2236 33.412C30.8911 33.412 31.5313 33.6767 32.0033 34.1481C32.4753 34.6194 32.7405 35.2587 32.7405 35.9253C32.7379 38.5144 31.7074 40.9967 29.8749 42.8284C28.0424 44.6601 25.5575 45.6918 22.9647 45.6971Z" fill="white"/>
</svg>
