<svg width="46" height="40" viewBox="0 0 46 40" fill="none" xmlns="http://www.w3.org/2000/svg">
<path d="M16.1843 35.4487C15.4906 35.4487 14.8254 35.164 14.3349 34.6571C13.8444 34.1503 13.5688 33.4628 13.5688 32.746V2.7027C13.5688 1.9859 13.8444 1.2984 14.3349 0.791543C14.8254 0.284688 15.4906 0 16.1843 0C16.8779 0 17.5432 0.284688 18.0336 0.791543C18.5241 1.2984 18.7997 1.9859 18.7997 2.7027V32.746C18.7997 33.4628 18.5241 34.1503 18.0336 34.6571C17.5432 35.164 16.8779 35.4487 16.1843 35.4487Z" fill="white"/>
<path d="M29.7844 40C29.0907 40 28.4255 39.7153 27.935 39.2085C27.4445 38.7016 27.1689 38.0141 27.1689 37.2973V7.25403C27.1689 6.53723 27.4445 5.84973 27.935 5.34287C28.4255 4.83602 29.0907 4.55133 29.7844 4.55133C30.478 4.55133 31.1433 4.83602 31.6337 5.34287C32.1242 5.84973 32.3998 6.53723 32.3998 7.25403V37.2973C32.3998 38.0141 32.1242 38.7016 31.6337 39.2085C31.1433 39.7153 30.478 40 29.7844 40Z" fill="white"/>
<path d="M2.58401 39.9994C2.03074 40.0017 1.49149 39.8198 1.04617 39.4805C0.720744 39.2293 0.456667 38.9031 0.27502 38.5276C0.0933732 38.1522 -0.000810765 37.738 5.25765e-06 37.3183V7.27501C0.00126709 6.70388 0.176863 6.14784 0.501826 5.68586C0.82679 5.22388 1.28453 4.87965 1.80986 4.70217L15.41 0.150596C15.934 -0.0224072 16.4972 -0.0224072 17.0212 0.150596L29.8158 4.47492L42.6104 0.150596C43.0033 0.0216353 43.42 -0.0101642 43.8269 0.0574263C44.2339 0.125017 44.6199 0.29023 44.9538 0.539901C45.2793 0.791064 45.5434 1.11729 45.725 1.49271C45.9067 1.86813 46.0008 2.28233 46 2.70206V32.7453C45.9987 33.3165 45.8231 33.8725 45.4982 34.3345C45.1732 34.7965 44.7155 35.1407 44.1901 35.3182L30.59 39.8695C30.066 40.0425 29.5029 40.0425 28.9789 39.8695L16.1842 35.5452L3.38958 39.8695C3.12916 39.9555 2.8574 39.9994 2.58401 39.9994ZM16.1842 30.0426C16.4576 30.0426 16.7293 30.0863 16.9898 30.1722L29.7844 34.4966L40.7691 30.821V6.4642L30.59 9.8695C30.066 10.0425 29.5029 10.0425 28.9789 9.8695L16.1842 5.54518L5.19943 9.22101V33.5778L15.3787 30.1722C15.6391 30.0863 15.9108 30.0426 16.1842 30.0426Z" fill="white"/>
</svg>
