<svg width="127" height="31" viewBox="0 0 127 31" fill="none" xmlns="http://www.w3.org/2000/svg">
<rect opacity="0.35" x="80.9228" y="5.92311" width="38.7692" height="19.0769" rx="4" stroke="#222222" stroke-width="1.84615"/>
<path opacity="0.4" d="M122.461 11.7692V19.1538C123.953 18.5284 124.923 17.0735 124.923 15.4615C124.923 13.8496 123.953 12.3947 122.461 11.7692" fill="#222222"/>
<rect x="83.6921" y="8.69232" width="33.2308" height="13.5385" rx="2.46154" fill="#222222"/>
<path fill-rule="evenodd" clip-rule="evenodd" d="M56.616 9.13646C60.7233 9.13663 64.6734 10.6831 67.6501 13.4563C67.8742 13.6704 68.2325 13.6677 68.4533 13.4503L70.5959 11.3312C70.7077 11.2209 70.77 11.0715 70.7691 10.9161C70.7682 10.7606 70.7041 10.612 70.591 10.503C62.7782 3.16572 50.4526 3.16572 42.6399 10.503C42.5267 10.6119 42.4625 10.7605 42.4614 10.916C42.4604 11.0714 42.5226 11.2208 42.6343 11.3312L44.7776 13.4503C44.9982 13.6681 45.3568 13.6708 45.5808 13.4563C48.5578 10.683 52.5084 9.13645 56.616 9.13646ZM56.6129 16.0144C58.8721 16.0142 61.0507 16.8572 62.7253 18.3795C62.9518 18.5955 63.3086 18.5908 63.5294 18.3689L65.672 16.1957C65.7849 16.0817 65.8475 15.9271 65.8458 15.7664C65.8442 15.6057 65.7785 15.4523 65.6634 15.3407C60.5638 10.5788 52.6664 10.5788 47.5668 15.3407C47.4516 15.4523 47.3859 15.6058 47.3844 15.7665C47.3828 15.9272 47.4457 16.0819 47.5587 16.1957L49.7007 18.3689C49.9215 18.5908 50.2783 18.5955 50.5048 18.3795C52.1784 16.8582 54.3552 16.0153 56.6129 16.0144ZM60.9229 21.0425C60.9262 21.2003 60.8628 21.3524 60.7478 21.4629L57.0283 25.1389C56.9192 25.2469 56.7706 25.3077 56.6155 25.3077C56.4604 25.3077 56.3117 25.2469 56.2027 25.1389L52.4825 21.4629C52.3676 21.3523 52.3043 21.2002 52.3078 21.0424C52.3112 20.8846 52.3809 20.7352 52.5005 20.6295C54.8759 18.662 58.355 18.662 60.7305 20.6295C60.85 20.7353 60.9196 20.8848 60.9229 21.0425Z" fill="#222222"/>
<path fill-rule="evenodd" clip-rule="evenodd" d="M33.2304 7.46153C33.2304 6.44192 32.4038 5.61537 31.3842 5.61537H29.5381C28.5185 5.61537 27.6919 6.44192 27.6919 7.46153V23.4615C27.6919 24.4811 28.5185 25.3077 29.5381 25.3077H31.3842C32.4038 25.3077 33.2304 24.4811 33.2304 23.4615V7.46153ZM20.9228 9.92307H22.769C23.7886 9.92307 24.6151 10.7496 24.6151 11.7692V23.4615C24.6151 24.4811 23.7886 25.3077 22.769 25.3077H20.9228C19.9032 25.3077 19.0767 24.4811 19.0767 23.4615V11.7692C19.0767 10.7496 19.9032 9.92307 20.9228 9.92307ZM14.1534 14.2307H12.3073C11.2877 14.2307 10.4611 15.0573 10.4611 16.0769V23.4615C10.4611 24.4811 11.2877 25.3077 12.3073 25.3077H14.1534C15.173 25.3077 15.9996 24.4811 15.9996 23.4615V16.0769C15.9996 15.0573 15.173 14.2307 14.1534 14.2307ZM7.38436 19.7692C7.38436 18.7496 6.55781 17.923 5.53821 17.923H3.69205C2.67245 17.923 1.8459 18.7496 1.8459 19.7692V23.4615C1.8459 24.4811 2.67245 25.3076 3.69205 25.3076H5.53821C6.55781 25.3076 7.38436 24.4811 7.38436 23.4615V19.7692Z" fill="#222222"/>
</svg>
