<svg width="57" height="22" viewBox="0 0 57 22" fill="none" xmlns="http://www.w3.org/2000/svg">
<path d="M7.303 21.1656C12.2654 21.1656 15.2132 17.2849 15.2132 10.7133C15.2132 8.23889 14.7399 6.15656 13.8339 4.54748C12.5223 2.04598 10.2642 0.693817 7.41117 0.693817C3.16538 0.693817 0.163574 3.54688 0.163574 7.54929C0.163574 11.3083 2.8679 14.0397 6.58635 14.0397C8.87151 14.0397 10.724 12.9715 11.6434 11.119H11.684C11.684 11.119 11.7381 11.119 11.7516 11.119C11.7787 11.119 11.8733 11.119 11.8733 11.119C11.8733 15.5811 10.1831 18.2449 7.33004 18.2449C5.65336 18.2449 4.35528 17.3254 3.90907 15.8516H0.434007C1.01544 19.0562 3.73329 21.1656 7.303 21.1656ZM7.42469 11.2677C5.1801 11.2677 3.58455 9.67218 3.58455 7.44111C3.58455 5.26413 5.26123 3.60097 7.43821 3.60097C9.6152 3.60097 11.2919 5.29117 11.2919 7.4952C11.2919 9.67218 9.65576 11.2677 7.42469 11.2677Z" fill="#222222"/>
<path d="M20.7231 18.6235C22.0076 18.6235 22.8865 17.704 22.8865 16.4871C22.8865 15.2566 22.0076 14.3507 20.7231 14.3507C19.452 14.3507 18.5596 15.2566 18.5596 16.4871C18.5596 17.704 19.452 18.6235 20.7231 18.6235ZM20.7231 8.48228C22.0076 8.48228 22.8865 7.57633 22.8865 6.35938C22.8865 5.12891 22.0076 4.22296 20.7231 4.22296C19.452 4.22296 18.5596 5.12891 18.5596 6.35938C18.5596 7.57633 19.452 8.48228 20.7231 8.48228Z" fill="#222222"/>
<path d="M26.6251 6.88673V6.94081H29.8973V6.88673C29.8973 4.89905 31.2766 3.5604 33.3183 3.5604C35.2384 3.5604 36.6446 4.80439 36.6446 6.52164C36.6446 7.90085 35.9821 8.91497 33.3183 11.6193L26.8144 18.2719V20.6923H40.3631V17.7311H31.6011V17.5012L35.6846 13.4042C38.9974 10.1319 40.0656 8.40115 40.0656 6.3053C40.0656 3.04658 37.2802 0.693817 33.4265 0.693817C29.4241 0.693817 26.6251 3.23588 26.6251 6.88673Z" fill="#222222"/>
<path d="M44.4938 20.6923H48.1446L56.4875 4.15536V1.1806H42.9118V4.11479H52.9719V4.33114L44.4938 20.6923Z" fill="#222222"/>
</svg>
