<svg width="175" height="70" viewBox="0 0 175 70" fill="none" xmlns="http://www.w3.org/2000/svg">
<rect x="2" y="2" width="171" height="66" rx="33" fill="white"/>
<path d="M38.848 27.064C39.392 27.064 39.584 27.256 39.584 27.8V28.376C39.584 30.808 39.136 31.576 30.592 35.416C29.504 35.896 29.504 37.048 29.856 37.816C30.272 38.68 31.232 39.32 32.224 38.872C42.016 34.392 43.648 32.952 43.648 28.504V26.232C43.648 24.216 42.976 23.576 40.928 23.576H31.36C30.368 23.576 29.92 24.376 29.92 25.336C29.92 26.264 30.368 27.064 31.36 27.064H38.848ZM52.16 28.504V23.672C52.16 22.488 51.168 21.944 50.112 21.944C49.056 21.944 48.064 22.488 48.064 23.672V37.08C48.064 38.264 49.056 38.808 50.112 38.808C51.168 38.808 52.16 38.264 52.16 37.08V32.056H55.168C56.192 32.056 56.64 31.256 56.64 30.264C56.64 29.304 56.192 28.504 55.168 28.504H52.16ZM49.44 51.608C51.488 51.608 52.16 50.968 52.16 48.952V42.648C52.16 40.632 51.488 39.992 49.44 39.992H35.936C33.888 39.992 33.216 40.632 33.216 42.648V48.952C33.216 50.968 33.888 51.608 35.936 51.608H49.44ZM38.016 48.216C37.472 48.216 37.28 48.024 37.28 47.48V44.12C37.28 43.576 37.472 43.384 38.016 43.384H47.36C47.904 43.384 48.096 43.576 48.096 44.12V47.48C48.096 48.024 47.904 48.216 47.36 48.216H38.016ZM67.397 25.208C67.397 23.992 66.405 23.448 65.317 23.448C64.229 23.448 63.237 23.992 63.237 25.208V29.624C63.237 32.184 62.565 33.816 60.805 35.768C59.653 37.016 58.405 38.264 57.093 39.48C56.325 40.216 56.421 41.304 57.061 42.04C57.637 42.68 58.821 43.128 59.621 42.392C60.901 41.208 61.957 40.152 62.981 39.064C64.677 37.272 65.157 36.568 65.317 35.8H65.349C65.477 36.44 65.957 37.176 67.653 38.968C68.677 40.056 69.733 41.112 70.565 41.88C71.301 42.584 72.453 42.296 73.061 41.688C73.701 41.016 73.989 39.832 73.189 39.128C72.229 38.264 70.981 37.016 69.829 35.768C68.069 33.816 67.397 32.184 67.397 29.624V25.208ZM79.685 31.384V23.672C79.685 22.488 78.693 21.944 77.637 21.944C76.581 21.944 75.589 22.488 75.589 23.672V48.184C75.589 49.368 76.581 49.912 77.637 49.912C78.693 49.912 79.685 49.368 79.685 48.184V34.936H82.693C83.717 34.936 84.165 34.136 84.165 33.144C84.165 32.184 83.717 31.384 82.693 31.384H79.685ZM92.394 39.64C100.938 39.64 104.586 39.48 107.178 39.192C108.106 39.096 108.458 38.2 108.362 37.272C108.266 36.44 107.722 35.768 106.73 35.864C106.154 35.928 105.546 35.992 104.906 36.024V27.224H106.25C107.242 27.224 107.69 26.424 107.69 25.56C107.69 24.696 107.242 23.896 106.25 23.896H92.586C91.594 23.896 91.146 24.696 91.146 25.56C91.146 26.424 91.594 27.224 92.586 27.224H94.09V36.312H92.394C91.402 36.312 90.954 37.112 90.954 37.976C90.954 38.84 91.402 39.64 92.394 39.64ZM97.962 27.224H101.034V36.216C100.042 36.28 99.05 36.28 97.962 36.28V27.224ZM111.146 42.04C111.146 43.224 112.138 43.768 113.162 43.768C114.186 43.768 115.178 43.224 115.178 42.04V23.672C115.178 22.488 114.186 21.944 113.162 21.944C112.138 21.944 111.146 22.488 111.146 23.672V26.872H108.874C107.882 26.872 107.434 27.672 107.434 28.6C107.434 29.528 107.882 30.328 108.874 30.328H111.146V32.152H108.874C107.882 32.152 107.434 32.952 107.434 33.88C107.434 34.808 107.882 35.608 108.874 35.608H111.146V42.04ZM114.442 51.384C115.434 51.384 115.882 50.584 115.882 49.656C115.882 48.696 115.434 47.896 114.442 47.896H100.65C100.106 47.896 99.914 47.704 99.914 47.16V43.32C99.914 42.136 98.922 41.592 97.866 41.592C96.778 41.592 95.786 42.136 95.786 43.32V48.728C95.786 50.744 96.458 51.384 98.506 51.384H114.442ZM134.095 27.608C135.087 27.608 135.535 26.808 135.535 25.88C135.535 24.92 135.087 24.12 134.095 24.12H120.655C119.663 24.12 119.215 24.92 119.215 25.88C119.215 26.808 119.663 27.608 120.655 27.608H125.423V30.04C125.423 32.792 124.815 34.296 123.055 36.12C121.839 37.368 120.623 38.52 119.279 39.704C118.479 40.408 118.575 41.528 119.215 42.264C119.791 42.904 120.911 43.352 121.743 42.648C122.959 41.592 124.111 40.472 125.263 39.32C126.927 37.656 127.343 36.952 127.503 36.216H127.535C127.663 36.824 128.079 37.56 129.743 39.224C130.895 40.376 131.951 41.4 132.783 42.136C133.551 42.808 134.607 42.52 135.247 41.88C135.887 41.208 136.143 40.056 135.343 39.352C134.383 38.52 133.167 37.368 131.951 36.12C130.191 34.296 129.583 32.792 129.583 30.04V27.608H134.095ZM142.511 23.672C142.511 22.488 141.519 21.944 140.431 21.944C139.375 21.944 138.383 22.488 138.383 23.672V48.184C138.383 49.368 139.375 49.912 140.431 49.912C141.519 49.912 142.511 49.368 142.511 48.184V23.672Z" fill="#96938B"/>
<rect x="2" y="2" width="171" height="66" rx="33" stroke="#96938B" stroke-width="4"/>
</svg>
