<svg width="357" height="155" viewBox="0 0 357 155" fill="none" xmlns="http://www.w3.org/2000/svg">
<path d="M27.88 6C29.04 6 29.6 5.12 29.6 3.96C29.6 2.8 29.04 1.92 27.88 1.92H8.08C5.52 1.92 4.68 2.72 4.68 5.24V14.96C4.68 17.48 5.52 18.28 8.08 18.28H28.48C29.64 18.28 30.2 17.4 30.2 16.24C30.2 15.08 29.64 14.2 28.48 14.2H10.2C9.8 14.2 9.6 14 9.6 13.6V12.04H27.56C28.68 12.04 29.2 11.16 29.2 10.08C29.2 9.04 28.68 8.12 27.56 8.12H9.6V6.6C9.6 6.2 9.8 6 10.2 6H27.88ZM32.36 25.12C33.56 25.12 34.12 24.12 34.12 23C34.12 21.84 33.56 20.84 32.36 20.84H2.04C0.84 20.84 0.28 21.84 0.28 23C0.28 24.12 0.84 25.12 2.04 25.12H32.36ZM9.72 28.92C9.72 27.44 8.48 26.76 7.16 26.76C5.84 26.76 4.6 27.44 4.6 28.92V34.32C4.6 36.84 5.44 37.64 8 37.64H28.68C29.88 37.64 30.44 36.68 30.44 35.52C30.44 34.32 29.88 33.36 28.68 33.36H10.64C9.96 33.36 9.72 33.12 9.72 32.44V28.92ZM62.2863 6C63.4463 6 64.0063 5.12 64.0063 3.96C64.0063 2.8 63.4463 1.92 62.2863 1.92H42.4863C39.9263 1.92 39.0863 2.72 39.0863 5.24V14.96C39.0863 17.48 39.9263 18.28 42.4863 18.28H62.8863C64.0463 18.28 64.6063 17.4 64.6063 16.24C64.6063 15.08 64.0463 14.2 62.8863 14.2H44.6063C44.2063 14.2 44.0063 14 44.0063 13.6V12.04H61.9663C63.0863 12.04 63.6063 11.16 63.6063 10.08C63.6063 9.04 63.0863 8.12 61.9663 8.12H44.0063V6.6C44.0063 6.2 44.2063 6 44.6063 6H62.2863ZM66.7663 25.12C67.9663 25.12 68.5263 24.12 68.5263 23C68.5263 21.84 67.9663 20.84 66.7663 20.84H36.4463C35.2463 20.84 34.6863 21.84 34.6863 23C34.6863 24.12 35.2463 25.12 36.4463 25.12H66.7663ZM44.1263 28.92C44.1263 27.44 42.8863 26.76 41.5663 26.76C40.2463 26.76 39.0063 27.44 39.0063 28.92V34.32C39.0063 36.84 39.8463 37.64 42.4063 37.64H63.0863C64.2863 37.64 64.8463 36.68 64.8463 35.52C64.8463 34.32 64.2863 33.36 63.0863 33.36H45.0463C44.3663 33.36 44.1263 33.12 44.1263 32.44V28.92ZM79.9325 10.72C74.4925 10.72 71.1325 13.32 71.1325 17.52C71.1325 21.72 74.4925 24.32 79.9325 24.32C85.3725 24.32 88.7325 21.72 88.7325 17.52C88.7325 13.32 85.3725 10.72 79.9325 10.72ZM88.7725 9.04C90.0125 9.04 90.5725 8.04 90.5725 6.88C90.5725 5.72 90.0125 4.72 88.7725 4.72H82.4925V2.76C82.4925 1.28 81.2525 0.599999 79.9325 0.599999C78.6125 0.599999 77.3725 1.28 77.3725 2.76V4.72H70.6925C69.4525 4.72 68.8925 5.72 68.8925 6.88C68.8925 8.04 69.4525 9.04 70.6925 9.04H88.7725ZM79.9325 20.4C77.0925 20.4 75.7325 19.16 75.7325 17.52C75.7325 15.88 77.0925 14.64 79.9325 14.64C82.7725 14.64 84.1325 15.88 84.1325 17.52C84.1325 19.16 82.7725 20.4 79.9325 20.4ZM98.0125 2.84C98.0125 1.36 96.7725 0.679998 95.4925 0.679998C94.1725 0.679998 92.9325 1.36 92.9325 2.84V26.2C92.9325 27.68 94.1725 28.36 95.4925 28.36C96.7725 28.36 98.0125 27.68 98.0125 26.2V15.52H101.813C103.053 15.52 103.613 14.52 103.613 13.32C103.613 12.12 103.053 11.12 101.813 11.12H98.0125V2.84ZM97.0925 37.48C98.3325 37.48 98.8925 36.48 98.8925 35.32C98.8925 34.12 98.3325 33.12 97.0925 33.12H80.4125C79.7325 33.12 79.4925 32.88 79.4925 32.2V28.12C79.4925 26.64 78.2525 25.96 76.9325 25.96C75.5725 25.96 74.3325 26.64 74.3325 28.12V34.16C74.3325 36.68 75.1725 37.48 77.7325 37.48H97.0925ZM125.899 4.44C125.899 2.92 124.659 2.24 123.299 2.24C121.939 2.24 120.699 2.92 120.699 4.44V8.2C120.699 10.72 119.939 12.48 118.139 14.08C116.419 15.6 114.899 16.84 113.179 18.12C111.939 19.04 112.179 20.44 112.859 21.36C113.499 22.24 114.859 22.88 116.019 22C117.579 20.84 119.019 19.68 120.579 18.32C122.619 16.56 123.139 15.8 123.339 14.88H123.379C123.619 15.76 124.179 16.36 126.019 18C127.539 19.32 129.019 20.52 130.019 21.28C131.139 22.12 132.499 21.52 133.139 20.64C133.859 19.68 134.019 18.4 132.859 17.52C131.699 16.64 130.179 15.4 128.459 13.88C126.659 12.28 125.899 10.52 125.899 8V4.44ZM142.139 2.84C142.139 1.36 140.899 0.679998 139.579 0.679998C138.259 0.679998 137.019 1.36 137.019 2.84V25.8C137.019 27.28 138.259 27.96 139.579 27.96C140.899 27.96 142.139 27.28 142.139 25.8V2.84ZM141.219 37.48C142.459 37.48 143.019 36.48 143.019 35.32C143.019 34.12 142.459 33.12 141.219 33.12H124.139C123.459 33.12 123.219 32.88 123.219 32.2V26.6C123.219 25.12 121.979 24.44 120.659 24.44C119.299 24.44 118.059 25.12 118.059 26.6V34.16C118.059 36.68 118.899 37.48 121.459 37.48H141.219ZM157.785 5.84V2.96C157.785 1.52 156.545 0.839998 155.265 0.839998C153.985 0.839998 152.745 1.52 152.745 2.96V5.84H147.865C146.625 5.84 146.065 6.84 146.065 8C146.065 9.16 146.625 10.16 147.865 10.16H152.745V12.4C152.745 15.52 152.385 16.88 150.665 18.88C149.345 20.4 147.945 21.84 146.425 23.32C145.505 24.24 145.705 25.56 146.585 26.52C147.385 27.36 148.825 27.52 149.745 26.64C150.865 25.56 151.985 24.4 153.065 23.24C154.745 21.44 155.145 20.6 155.305 19.68H155.345C155.505 20.52 155.785 21.24 157.465 23.04C158.465 24.12 159.305 25 160.145 25.8C161.145 26.72 162.425 26.6 163.265 25.72C164.105 24.88 164.345 23.48 163.385 22.6C162.585 21.84 161.185 20.4 159.865 18.88C158.145 16.88 157.785 15.52 157.785 12.4V10.16H162.185C163.425 10.16 163.985 9.16 163.985 8C163.985 6.84 163.425 5.84 162.185 5.84H157.785ZM165.705 31.96C165.705 33.32 166.865 33.96 168.065 33.96C169.225 33.96 170.385 33.32 170.385 31.96V3.08C170.385 1.72 169.225 1.08 168.065 1.08C166.865 1.08 165.705 1.72 165.705 3.08V13.28H162.905C161.665 13.28 161.105 14.28 161.105 15.48C161.105 16.64 161.665 17.64 162.905 17.64H165.705V31.96ZM172.985 33.64C172.985 35 174.145 35.64 175.345 35.64C176.545 35.64 177.705 35 177.705 33.64V2.68C177.705 1.32 176.545 0.679998 175.345 0.679998C174.145 0.679998 172.985 1.32 172.985 2.68V33.64ZM186.151 22.76C185.031 22.76 184.511 23.72 184.511 24.72C184.511 25.76 185.031 26.68 186.151 26.68H204.231C204.631 26.68 204.831 26.88 204.831 27.28V27.96C204.831 28.36 204.631 28.56 204.231 28.56H187.991C185.431 28.56 184.591 29.36 184.591 31.88V34.84C184.591 37.36 185.431 38.16 187.991 38.16H208.951C210.071 38.16 210.591 37.24 210.591 36.2C210.591 35.2 210.071 34.24 208.951 34.24H190.151C189.751 34.24 189.551 34.04 189.551 33.64V32.92C189.551 32.52 189.751 32.32 190.151 32.32H206.391C208.951 32.32 209.791 31.52 209.791 29V26.08C209.791 23.56 208.951 22.76 206.391 22.76H186.151ZM212.391 20.64C213.591 20.64 214.151 19.68 214.151 18.56C214.151 17.44 213.591 16.48 212.391 16.48H199.751V13.56H208.631C209.831 13.56 210.391 12.6 210.391 11.44C210.391 10.32 209.831 9.36 208.631 9.36H190.791C190.111 9.36 189.871 9.12 189.871 8.44V3.2C189.871 1.72 188.631 1.04 187.311 1.04C185.951 1.04 184.711 1.72 184.711 3.2V10.24C184.711 12.76 185.551 13.56 188.111 13.56H194.711V16.48H182.071C180.871 16.48 180.311 17.44 180.311 18.56C180.311 19.68 180.871 20.64 182.071 20.64H212.391ZM215.918 14.88C215.918 22.76 219.158 27.04 225.558 27.04C231.958 27.04 235.198 22.76 235.198 14.88C235.198 7 231.958 2.72 225.558 2.72C219.158 2.72 215.918 7 215.918 14.88ZM230.278 14.88C230.278 19.92 229.038 22.6 225.558 22.6C222.078 22.6 220.838 19.92 220.838 14.88C220.838 9.84 222.078 7.16 225.558 7.16C229.038 7.16 230.278 9.84 230.278 14.88ZM245.358 2.84C245.358 1.36 244.118 0.679998 242.758 0.679998C241.438 0.679998 240.198 1.36 240.198 2.84V33.48C240.198 34.96 241.438 35.64 242.758 35.64C244.118 35.64 245.358 34.96 245.358 33.48V2.84ZM270.564 28.96C271.764 28.84 272.204 27.76 272.124 26.64C272.044 25.48 271.444 24.6 270.204 24.72C267.844 24.92 265.484 25.08 263.084 25.16V20C267.804 19.12 270.244 15.8 270.244 11.4C270.244 6.28 266.964 2.6 260.524 2.6C254.084 2.6 250.804 6.28 250.804 11.4C250.804 15.84 253.244 19.16 258.044 20V25.28C255.604 25.32 253.164 25.32 250.804 25.32C249.564 25.32 249.004 26.32 249.004 27.48C249.004 28.64 249.564 29.64 250.804 29.64C258.084 29.64 265.404 29.4 270.564 28.96ZM278.724 2.8C278.724 1.36 277.524 0.679998 276.204 0.679998C274.884 0.679998 273.684 1.36 273.684 2.8V33.52C273.684 34.96 274.884 35.64 276.204 35.64C277.524 35.64 278.724 34.96 278.724 33.52V18.12H281.964C283.244 18.12 283.804 17.12 283.804 15.88C283.804 14.68 283.244 13.68 281.964 13.68H278.724V2.8ZM260.524 6.84C263.884 6.84 265.404 8.72 265.404 11.4C265.404 14.08 263.884 15.96 260.524 15.96C257.164 15.96 255.644 14.08 255.644 11.4C255.644 8.72 257.164 6.84 260.524 6.84ZM4.6 65.08C4.6 70.6 9.36 73.56 17.2 73.56C25.04 73.56 29.8 70.6 29.8 65.08C29.8 59.56 25.04 56.6 17.2 56.6C9.36 56.6 4.6 59.56 4.6 65.08ZM24.68 65.08C24.68 67.52 22.52 69.24 17.2 69.24C11.88 69.24 9.72 67.52 9.72 65.08C9.72 62.64 11.88 60.92 17.2 60.92C22.52 60.92 24.68 62.64 24.68 65.08ZM20.36 80.8V91.12C20.36 92.6 21.56 93.24 22.84 93.24C24.08 93.24 25.28 92.6 25.28 91.12V80.8H32.32C33.56 80.8 34.12 79.8 34.12 78.68C34.12 77.52 33.56 76.52 32.32 76.52H2.08C0.84 76.52 0.28 77.52 0.28 78.68C0.28 79.8 0.84 80.8 2.08 80.8H9.12V91.12C9.12 92.6 10.32 93.24 11.6 93.24C12.84 93.24 14.04 92.6 14.04 91.12V80.8H20.36ZM40.6863 63.88C40.6863 63.2 40.9263 62.96 41.6063 62.96H49.0863C50.3263 62.96 50.8863 61.96 50.8863 60.8C50.8863 59.6 50.3263 58.6 49.0863 58.6H38.9663C36.4063 58.6 35.5663 59.4 35.5663 61.92V77.92C35.5663 80.44 36.4063 81.24 38.9663 81.24C45.1662 81.24 49.0463 80.96 50.7663 80.68C51.9263 80.48 52.3263 79.44 52.2063 78.24C52.0863 77.04 51.3663 76.2 50.1663 76.36C47.6063 76.72 44.2463 76.88 41.6063 76.88C40.9263 76.88 40.6863 76.64 40.6863 75.96V63.88ZM58.5663 58.08C58.5663 56.72 57.4063 56.08 56.2063 56.08C55.0463 56.08 53.8863 56.72 53.8863 58.08V86.96C53.8863 88.32 55.0463 88.96 56.2063 88.96C57.4063 88.96 58.5663 88.32 58.5663 86.96V72.04H61.7663V88.64C61.7663 90 62.9263 90.64 64.1263 90.64C65.3263 90.64 66.4863 90 66.4863 88.64V57.68C66.4863 56.32 65.3263 55.68 64.1263 55.68C62.9263 55.68 61.7663 56.32 61.7663 57.68V67.72H58.5663V58.08ZM81.3725 62.08C82.0525 62.08 82.2925 62.32 82.2925 63V63.72C82.2925 66.76 81.7325 67.72 71.0525 72.52C69.6925 73.12 69.6925 74.56 70.1325 75.52C70.6525 76.6 71.8525 77.4 73.0925 76.84C85.3325 71.24 87.3725 69.44 87.3725 63.88V61.04C87.3725 58.52 86.5325 57.72 83.9725 57.72H72.0125C70.7725 57.72 70.2125 58.72 70.2125 59.92C70.2125 61.08 70.7725 62.08 72.0125 62.08H81.3725ZM98.0125 63.88V57.84C98.0125 56.36 96.7725 55.68 95.4525 55.68C94.1325 55.68 92.8925 56.36 92.8925 57.84V74.6C92.8925 76.08 94.1325 76.76 95.4525 76.76C96.7725 76.76 98.0125 76.08 98.0125 74.6V68.32H101.773C103.053 68.32 103.613 67.32 103.613 66.08C103.613 64.88 103.053 63.88 101.773 63.88H98.0125ZM94.6125 92.76C97.1725 92.76 98.0125 91.96 98.0125 89.44V81.56C98.0125 79.04 97.1725 78.24 94.6125 78.24H77.7325C75.1725 78.24 74.3325 79.04 74.3325 81.56V89.44C74.3325 91.96 75.1725 92.76 77.7325 92.76H94.6125ZM80.3325 88.52C79.6525 88.52 79.4125 88.28 79.4125 87.6V83.4C79.4125 82.72 79.6525 82.48 80.3325 82.48H92.0125C92.6925 82.48 92.9325 82.72 92.9325 83.4V87.6C92.9325 88.28 92.6925 88.52 92.0125 88.52H80.3325ZM122.659 65.16C117.339 65.16 114.059 67.6 114.059 71.68C114.059 75.76 117.339 78.2 122.659 78.2C127.979 78.2 131.259 75.76 131.259 71.68C131.259 67.6 127.979 65.16 122.659 65.16ZM113.619 59.4C112.379 59.4 111.819 60.4 111.819 61.56C111.819 62.68 112.379 63.68 113.619 63.68H131.299C132.539 63.68 133.099 62.68 133.099 61.56C133.099 60.4 132.539 59.4 131.299 59.4H125.219V57.44C125.219 55.96 123.979 55.28 122.659 55.28C121.339 55.28 120.099 55.96 120.099 57.44V59.4H113.619ZM122.659 74.32C119.939 74.32 118.659 73.2 118.659 71.68C118.659 70.16 119.939 69.04 122.659 69.04C125.379 69.04 126.659 70.16 126.659 71.68C126.659 73.2 125.379 74.32 122.659 74.32ZM142.379 57.8C142.379 56.36 141.179 55.68 139.899 55.68C138.579 55.68 137.379 56.36 137.379 57.8V64.68H134.099C132.899 64.68 132.419 65.64 132.419 66.76C132.419 67.92 132.899 68.88 134.099 68.88H137.379V71.32H134.299C133.099 71.32 132.619 72.28 132.619 73.4C132.619 74.56 133.099 75.52 134.299 75.52H137.379V77.36C137.379 78.8 138.579 79.48 139.899 79.48C141.179 79.48 142.379 78.8 142.379 77.36V57.8ZM118.499 86.52C118.499 91.36 123.059 93.48 130.499 93.48C137.939 93.48 142.499 91.36 142.499 86.52C142.499 81.68 137.939 79.56 130.499 79.56C123.059 79.56 118.499 81.68 118.499 86.52ZM137.459 86.52C137.459 88.32 135.499 89.48 130.499 89.48C125.499 89.48 123.539 88.32 123.539 86.52C123.539 84.72 125.499 83.56 130.499 83.56C135.499 83.56 137.459 84.72 137.459 86.52ZM159.905 59.12C159.905 57.6 158.665 56.92 157.305 56.92C155.945 56.92 154.705 57.6 154.705 59.12V62.72C154.705 65.12 154.065 66.72 152.345 68.2C150.585 69.68 149.065 70.88 147.305 72.16C146.065 73.04 146.265 74.44 146.945 75.4C147.545 76.24 148.905 76.88 150.065 76.04C151.625 74.92 153.105 73.76 154.665 72.44C156.545 70.88 157.145 70.08 157.345 69.2H157.385C157.585 69.96 158.065 70.6 159.945 72.16C161.505 73.48 162.985 74.64 163.945 75.32C165.145 76.16 166.465 75.52 167.065 74.68C167.785 73.68 167.865 72.4 166.745 71.6C165.545 70.72 164.025 69.52 162.265 68.04C160.545 66.56 159.905 64.96 159.905 62.56V59.12ZM171.705 67.16V75.56C171.705 77.04 172.945 77.72 174.265 77.72C175.545 77.72 176.785 77.04 176.785 75.56V57.84C176.785 56.36 175.545 55.68 174.265 55.68C172.945 55.68 171.705 56.36 171.705 57.84V62.8H166.705C165.465 62.8 164.905 63.8 164.905 65C164.905 66.16 165.465 67.16 166.705 67.16H171.705ZM152.745 85.72C152.745 90.92 157.305 93.48 164.825 93.48C172.345 93.48 176.905 90.92 176.905 85.72C176.905 80.52 172.345 77.96 164.825 77.96C157.305 77.96 152.745 80.52 152.745 85.72ZM171.825 85.72C171.825 87.92 169.865 89.4 164.825 89.4C159.785 89.4 157.825 87.92 157.825 85.72C157.825 83.52 159.785 82.04 164.825 82.04C169.865 82.04 171.825 83.52 171.825 85.72ZM192.711 75.68C199.271 75.68 202.671 71.92 202.671 66.72C202.671 61.52 199.271 57.76 192.711 57.76C186.151 57.76 182.751 61.52 182.751 66.72C182.751 71.92 186.151 75.68 192.711 75.68ZM192.711 62C196.191 62 197.831 63.96 197.831 66.72C197.831 69.48 196.191 71.44 192.711 71.44C189.231 71.44 187.591 69.48 187.591 66.72C187.591 63.96 189.231 62 192.711 62ZM203.471 83.72C204.671 83.6 205.111 82.52 205.031 81.36C204.951 80.2 204.351 79.32 203.111 79.44C196.391 80.04 189.351 80.12 182.551 80.12C181.311 80.12 180.751 81.12 180.751 82.28C180.751 83.48 181.311 84.48 182.551 84.48C190.231 84.48 198.151 84.2 203.471 83.72ZM206.591 88.48C206.591 89.96 207.831 90.64 209.151 90.64C210.431 90.64 211.671 89.96 211.671 88.48V57.84C211.671 56.36 210.431 55.68 209.151 55.68C207.831 55.68 206.591 56.36 206.591 57.84V88.48ZM227.238 58.36C224.678 58.36 223.838 59.16 223.838 61.68V78.08C223.838 80.6 224.678 81.4 227.238 81.4H238.238C240.798 81.4 241.637 80.6 241.637 78.08V61.68C241.637 59.16 240.798 58.36 238.238 58.36H227.238ZM236.558 76.16C236.558 76.84 236.318 77.08 235.638 77.08H229.838C229.158 77.08 228.918 76.84 228.918 76.16V63.6C228.918 62.92 229.158 62.68 229.838 62.68H235.638C236.318 62.68 236.558 62.92 236.558 63.6V76.16ZM251.638 67.48V57.84C251.638 56.36 250.398 55.68 249.078 55.68C247.758 55.68 246.518 56.36 246.518 57.84V88.48C246.518 89.96 247.758 90.64 249.078 90.64C250.398 90.64 251.638 89.96 251.638 88.48V71.92H255.398C256.678 71.92 257.238 70.92 257.238 69.68C257.238 68.48 256.678 67.48 255.398 67.48H251.638ZM274.044 70.6C281.844 70.6 286.564 68.44 286.564 63.52C286.564 58.6 281.844 56.44 274.044 56.44C266.244 56.44 261.524 58.6 261.524 63.52C261.524 68.44 266.244 70.6 274.044 70.6ZM274.044 60.52C279.364 60.52 281.484 61.6 281.484 63.52C281.484 65.44 279.364 66.52 274.044 66.52C268.724 66.52 266.604 65.44 266.604 63.52C266.604 61.6 268.724 60.52 274.044 60.52ZM289.204 77C290.404 77 290.964 76.04 290.964 74.84C290.964 73.68 290.404 72.72 289.204 72.72H258.884C257.684 72.72 257.124 73.68 257.124 74.84C257.124 76.04 257.684 77 258.884 77H289.204ZM283.244 92.92C285.804 92.92 286.644 92.12 286.644 89.6V83.08C286.644 80.56 285.804 79.76 283.244 79.76H264.844C262.284 79.76 261.444 80.56 261.444 83.08V89.6C261.444 92.12 262.284 92.92 264.844 92.92H283.244ZM267.444 88.76C266.764 88.76 266.524 88.52 266.524 87.84V84.84C266.524 84.16 266.764 83.92 267.444 83.92H280.644C281.324 83.92 281.564 84.16 281.564 84.84V87.84C281.564 88.52 281.324 88.76 280.644 88.76H267.444ZM297.37 77.76C296.25 77.76 295.73 78.72 295.73 79.72C295.73 80.76 296.25 81.68 297.37 81.68H315.45C315.85 81.68 316.05 81.88 316.05 82.28V82.96C316.05 83.36 315.85 83.56 315.45 83.56H299.21C296.65 83.56 295.81 84.36 295.81 86.88V89.84C295.81 92.36 296.65 93.16 299.21 93.16H320.17C321.29 93.16 321.81 92.24 321.81 91.2C321.81 90.2 321.29 89.24 320.17 89.24H301.37C300.97 89.24 300.77 89.04 300.77 88.64V87.92C300.77 87.52 300.97 87.32 301.37 87.32H317.61C320.17 87.32 321.01 86.52 321.01 84V81.08C321.01 78.56 320.17 77.76 317.61 77.76H297.37ZM323.61 75.64C324.81 75.64 325.37 74.68 325.37 73.56C325.37 72.44 324.81 71.48 323.61 71.48H310.97V68.56H319.85C321.05 68.56 321.61 67.6 321.61 66.44C321.61 65.32 321.05 64.36 319.85 64.36H302.01C301.33 64.36 301.09 64.12 301.09 63.44V58.2C301.09 56.72 299.85 56.04 298.53 56.04C297.17 56.04 295.93 56.72 295.93 58.2V65.24C295.93 67.76 296.77 68.56 299.33 68.56H305.93V71.48H293.29C292.09 71.48 291.53 72.44 291.53 73.56C291.53 74.68 292.09 75.64 293.29 75.64H323.61ZM327.136 69.88C327.136 77.76 330.376 82.04 336.776 82.04C343.176 82.04 346.416 77.76 346.416 69.88C346.416 62 343.176 57.72 336.776 57.72C330.376 57.72 327.136 62 327.136 69.88ZM341.496 69.88C341.496 74.92 340.256 77.6 336.776 77.6C333.296 77.6 332.056 74.92 332.056 69.88C332.056 64.84 333.296 62.16 336.776 62.16C340.256 62.16 341.496 64.84 341.496 69.88ZM356.576 57.84C356.576 56.36 355.336 55.68 353.976 55.68C352.656 55.68 351.416 56.36 351.416 57.84V88.48C351.416 89.96 352.656 90.64 353.976 90.64C355.336 90.64 356.576 89.96 356.576 88.48V57.84Z" fill="#FFD8BC"/>
<path d="M10.66 121.776C10.66 121.028 10.924 120.764 11.672 120.764H30.768C32.132 120.764 32.748 119.664 32.748 118.388C32.748 117.112 32.132 116.012 30.768 116.012H8.9C6.084 116.012 5.16 116.892 5.16 119.664V134.492C5.16 137.264 6.084 138.144 8.9 138.144H31.428C32.792 138.144 33.408 137.044 33.408 135.768C33.408 134.492 32.792 133.392 31.428 133.392H11.672C10.924 133.392 10.66 133.128 10.66 132.38V129.344H30.328C31.692 129.344 32.308 128.244 32.308 127.056C32.308 125.868 31.692 124.768 30.328 124.768H10.66V121.776ZM35.652 148.396C37.016 148.396 37.632 147.296 37.632 146.02C37.632 144.7 37.016 143.6 35.652 143.6H2.388C1.024 143.6 0.408 144.7 0.408 146.02C0.408 147.296 1.024 148.396 2.388 148.396H35.652ZM44.3709 141.796C53.4349 141.796 58.4949 141.4 62.1029 140.916C63.3789 140.74 63.8189 139.552 63.6869 138.232C63.5549 136.956 62.7629 135.988 61.3989 136.164C57.1309 136.736 52.5989 137 47.3189 137C46.5709 137 46.3069 136.736 46.3069 135.988V118.476C46.3069 116.848 44.9429 116.1 43.4469 116.1C41.9949 116.1 40.6309 116.848 40.6309 118.476V138.144C40.6309 140.916 41.5549 141.796 44.3709 141.796ZM71.9589 115.924C71.9589 114.296 70.5949 113.548 69.0989 113.548C67.6469 113.548 66.2829 114.296 66.2829 115.924V149.628C66.2829 151.256 67.6469 152.004 69.0989 152.004C70.5949 152.004 71.9589 151.256 71.9589 149.628V115.924ZM87.1457 120.544C87.8937 120.544 88.1577 120.808 88.1577 121.556V123.404L78.0817 123.712C76.7177 123.756 76.1897 124.988 76.2777 126.088C76.3657 127.408 77.0697 128.42 78.3897 128.332L87.6737 127.584C86.7937 128.904 84.4617 130.18 77.9497 133.392C76.6737 134.008 76.6297 135.636 77.2897 136.736C77.9057 137.792 79.3137 138.32 80.5897 137.66C92.0297 131.896 93.3937 130.004 93.3937 123.976V119.62C93.3937 116.848 92.4697 115.968 89.6537 115.968H79.3137C77.9497 115.968 77.3337 117.068 77.3337 118.256C77.3337 119.444 77.9497 120.544 79.3137 120.544H87.1457ZM102.106 115.968C102.106 114.472 100.83 113.768 99.5097 113.768C98.2337 113.768 96.9578 114.472 96.9578 115.968V134.58C96.9578 136.076 98.2337 136.78 99.5097 136.78C100.83 136.78 102.106 136.076 102.106 134.58V127.672H105.89V134.8C105.89 136.296 107.166 137 108.486 137C109.806 137 111.082 136.296 111.082 134.8V115.748C111.082 114.252 109.806 113.548 108.486 113.548C107.166 113.548 105.89 114.252 105.89 115.748V123.008H102.106V115.968ZM107.342 154.336C110.158 154.336 111.082 153.456 111.082 150.684V142.28C111.082 139.508 110.158 138.628 107.342 138.628H87.2337C84.4177 138.628 83.4937 139.508 83.4937 142.28V150.684C83.4937 153.456 84.4177 154.336 87.2337 154.336H107.342ZM90.0937 149.672C89.3457 149.672 89.0817 149.408 89.0817 148.66V144.304C89.0817 143.556 89.3457 143.292 90.0937 143.292H104.482C105.23 143.292 105.494 143.556 105.494 144.304V148.66C105.494 149.408 105.23 149.672 104.482 149.672H90.0937ZM119.757 116.364C118.437 116.364 117.821 117.42 117.821 118.696C117.821 119.972 118.437 121.028 119.757 121.028H123.321V132.248H119.581C118.261 132.248 117.645 133.304 117.645 134.58C117.645 135.856 118.261 136.912 119.581 136.912H145.541C146.861 136.912 147.477 135.856 147.477 134.58C147.477 133.304 146.861 132.248 145.541 132.248H141.801V121.028H145.365C146.685 121.028 147.301 119.972 147.301 118.696C147.301 117.42 146.685 116.364 145.365 116.364H119.757ZM128.777 121.028H136.345V132.248H128.777V121.028ZM149.193 148.396C150.557 148.396 151.173 147.296 151.173 146.02C151.173 144.7 150.557 143.6 149.193 143.6H115.929C114.565 143.6 113.949 144.7 113.949 146.02C113.949 147.296 114.565 148.396 115.929 148.396H149.193ZM157.427 143.336C155.535 143.336 154.083 144.788 154.083 146.68C154.083 148.572 155.535 150.024 157.427 150.024C159.319 150.024 160.771 148.572 160.771 146.68C160.771 144.788 159.319 143.336 157.427 143.336ZM157.427 115.176C155.579 115.176 154.303 115.924 154.347 117.86L155.051 137.968C155.095 139.772 156.239 140.388 157.427 140.388C158.615 140.388 159.759 139.772 159.803 137.968L160.507 117.86C160.551 115.924 159.275 115.176 157.427 115.176Z" fill="white"/>
</svg>
