<svg width="150" height="69" viewBox="0 0 150 69" fill="none" xmlns="http://www.w3.org/2000/svg">
<g clip-path="url(#clip0_121_1784)">
<path d="M18.9359 40.638C18.9359 39.2667 19.2177 36.9265 17.0051 36.9265C14.7925 36.9265 15.0825 39.2667 15.0825 40.638V53.5544C15.0825 54.9175 14.8008 57.2578 17.0051 57.2578C19.2094 57.2578 18.9359 54.9175 18.9359 53.5544V49.769H29.1039V60.9282C26.3858 63.1535 22.0103 64.3606 17.7592 64.4838C13.508 64.6069 9.47234 63.6626 7.3592 61.7083C4.44224 59.015 4.55825 55.5087 4.55825 51.8547V40.2028C4.55825 37.1974 4.95602 34.2742 7.43378 32.246C9.72095 30.3656 13.4666 29.5527 17.4443 29.7087C21.5883 29.8643 25.6145 31.1176 29.1039 33.3381V42.6251H18.9359V40.638Z" fill="white"/>
<path d="M17.1289 69.0082C14.0379 69.0082 8.01339 68.5073 4.25116 64.9928C0.00830268 61.076 0.0166017 56.1821 0.0166017 52.2406V40.2028C0.0166017 36.6062 0.538673 32.0489 4.5495 28.7561C7.61563 26.2927 12.2645 24.9871 17.6427 25.1924C22.6187 25.3733 27.4524 26.8857 31.6309 29.5691C32.26 29.9806 32.7763 30.5403 33.1335 31.198C33.4907 31.8558 33.6777 32.5911 33.6777 33.3381V42.6251C33.6772 43.3152 33.517 43.9959 33.2096 44.6151C32.9022 45.2343 32.4557 45.7755 31.9043 46.1971C32.4602 46.6161 32.9115 47.1562 33.2233 47.7755C33.5351 48.3948 33.6991 49.0769 33.7026 49.769V60.9282C33.7017 61.5936 33.5527 62.2506 33.2662 62.8524C32.9797 63.4542 32.5628 63.986 32.0452 64.4098C28.6725 67.1689 23.5263 68.844 17.9576 68.9918L17.1289 69.0082ZM23.5263 54.2852C23.6419 56.0714 23.1551 57.8449 22.1424 59.327C22.974 59.1137 23.784 58.8251 24.5622 58.4648V54.2852H23.5263ZM11.8668 34.9147C11.3218 35.1041 10.8122 35.3815 10.3586 35.7358C9.60445 36.3599 9.13212 37.3206 9.13212 40.2192V52.2735C9.13212 55.7551 9.24814 57.2824 10.4829 58.4238C10.8624 58.741 11.2979 58.986 11.7673 59.1464C10.8024 57.5753 10.3697 55.7396 10.5326 53.9075V40.3013C10.3507 38.4102 10.8147 36.5133 11.8502 34.9147H11.8668ZM23.4269 38.1089H24.5871V35.9739C23.8579 35.6392 23.1077 35.3513 22.3413 35.1117C22.9258 36.0159 23.2917 37.0416 23.4103 38.1089H23.4269Z" fill="#172C87"/>
<path d="M56.9721 63.8187H45.3705V58.4484C46.5141 57.7422 46.4063 56.6173 46.4063 55.4841V51.0336H42.8182V55.4841C42.8182 56.6173 42.7104 57.7422 43.854 58.4484V63.8187H32.2524V58.4484C33.396 57.7422 33.2883 56.6173 33.2883 55.4841V41.8943C33.2883 40.7612 33.396 39.6362 32.2524 38.9218V33.5598H43.854V38.9218C42.7104 39.6362 42.8182 40.7612 42.8182 41.8943V45.1789H46.4561V41.8943C46.4561 40.7612 46.5638 39.6362 45.4202 38.9218V33.5598H57.0218V38.9218C55.8865 39.6362 55.9942 40.7612 55.9942 41.8943V55.4841C55.9942 56.6173 55.8865 57.7422 57.0218 58.4484L56.9721 63.8187Z" fill="white"/>
<path d="M56.9721 68.3349H45.3705C45.1068 68.3337 44.8436 68.3118 44.5833 68.2692C44.3259 68.3121 44.0654 68.3341 43.8043 68.3349H32.2028C30.994 68.3349 29.8347 67.8591 28.9799 67.0121C28.1252 66.1652 27.645 65.0164 27.645 63.8187V58.4484C27.6478 57.4061 28.0137 56.3968 28.6809 55.5909V41.7876C28.0137 40.9785 27.6479 39.9666 27.645 38.9218V33.5598C27.645 32.362 28.1252 31.2133 28.9799 30.3663C29.8347 29.5194 30.994 29.0436 32.2028 29.0436H43.8043C44.0654 29.0444 44.3259 29.0664 44.5833 29.1093C44.8436 29.0667 45.1068 29.0448 45.3705 29.0436H56.9721C58.1809 29.0436 59.3402 29.5194 60.1949 30.3663C61.0497 31.2133 61.5299 32.362 61.5299 33.5598V38.9218C61.53 39.9657 61.1671 40.9778 60.5023 41.7876V55.5827C61.1671 56.3925 61.53 57.4045 61.5299 58.4484V63.8187C61.5299 65.0164 61.0497 66.1652 60.1949 67.0121C59.3402 67.8591 58.1809 68.3349 56.9721 68.3349ZM50.3924 59.3024H51.9752C51.5333 58.1616 51.3331 56.943 51.3868 55.7223V41.6562C51.3331 40.4355 51.5333 39.2168 51.9752 38.0761H50.3924C50.84 39.2154 51.0432 40.4347 50.989 41.6562V45.1378C50.9882 46.2207 50.594 47.2671 49.8786 48.0857C50.5927 48.905 50.9867 49.951 50.989 51.0336V55.7223C51.0432 56.9438 50.84 58.163 50.3924 59.3024V59.3024ZM37.2495 59.3024H38.8322C38.3846 58.163 38.1814 56.9438 38.2356 55.7223V51.0336C38.2334 49.9502 38.628 48.9027 39.346 48.0857C38.6266 47.2695 38.2319 46.2215 38.2356 45.1378V41.6562C38.1814 40.4347 38.3846 39.2154 38.8322 38.0761H37.2412C37.6888 39.2154 37.892 40.4347 37.8378 41.6562V55.7223C37.8915 56.943 37.6913 58.1616 37.2495 59.3024Z" fill="#172C87"/>
<path d="M69.3358 63.8187H58.8198V58.4484C59.8557 57.7422 59.9634 56.1903 60.2452 55.0243L64.2726 33.5598H77.8133L82.2716 55.4841C82.4456 56.4367 82.8019 58.1364 83.8709 58.4484V63.8187H71.8633V58.4484C72.2017 58.3299 72.4921 58.1056 72.6909 57.8095C72.8896 57.5133 72.986 57.1612 72.9655 56.8062C72.9576 56.5084 72.9103 56.213 72.8246 55.9275H68.2254C68.1465 56.2145 68.0992 56.5091 68.0845 56.8062C68.06 57.183 68.1729 57.5561 68.4025 57.8575C68.6321 58.1589 68.9633 58.3686 69.3358 58.4484V63.8187ZM71.971 50.0154L70.4048 41.0404H70.3303L68.8303 50.0154H71.971Z" fill="white"/>
<path d="M83.8794 68.3349H71.8717C71.4427 68.3336 71.0159 68.2728 70.6039 68.1543C70.1948 68.2734 69.7707 68.3342 69.3443 68.3349H58.8283C57.6195 68.3349 56.4602 67.8591 55.6054 67.0121C54.7507 66.1652 54.2705 65.0165 54.2705 63.8187V58.4484C54.2735 57.2897 54.7242 56.176 55.5301 55.3363C55.5301 55.1721 55.6047 54.9833 55.6378 54.8354C55.671 54.6876 55.7373 54.3346 55.7953 54.0964L59.7978 32.7469C59.9947 31.7112 60.5504 30.776 61.3689 30.1029C62.1874 29.4298 63.2173 29.0609 64.281 29.06H77.8217C78.8735 29.0602 79.893 29.4209 80.7071 30.0809C81.5212 30.7409 82.0798 31.6596 82.2883 32.6812L86.7466 54.6138C86.7466 54.778 86.8046 54.9094 86.8295 55.0243C87.3331 55.4481 87.7377 55.9753 88.0153 56.5693C88.2929 57.1634 88.4368 57.8102 88.4371 58.4649V63.8351C88.4327 65.03 87.9506 66.1745 87.0963 67.0179C86.2421 67.8613 85.0853 68.3349 83.8794 68.3349V68.3349ZM77.0427 59.3024H78.7001C78.2664 58.3474 77.9626 57.3396 77.7968 56.3053L76.5372 50.1057C76.5204 50.9495 76.2649 51.7718 75.7997 52.4788C76.5169 53.0885 77.0263 53.9031 77.2582 54.8108C77.4303 55.457 77.5221 56.1215 77.5317 56.7898C77.5344 57.6508 77.3683 58.5041 77.0427 59.3024V59.3024ZM63.7838 59.3024H64.0407C63.9909 59.1957 63.9578 59.0971 63.9164 58.9904C63.8666 59.0971 63.8252 59.1957 63.7755 59.3024H63.7838ZM73.8274 38.0761C73.9604 38.2172 74.0823 38.3682 74.192 38.5277L74.1009 38.0761H73.8274Z" fill="#172C87"/>
<path d="M101.017 45.9507H101.091L104.298 33.5598H115.983V38.9218C114.847 39.6362 114.947 40.7612 114.947 41.8943V55.4841C114.947 56.6173 114.847 57.7422 115.983 58.4484V63.8187H104.829V58.4484C105.972 57.7422 105.864 56.6173 105.864 55.4841V47.3631H105.798L101.655 63.7858H98.6548L94.3125 47.3631H94.2379V55.4841C94.2379 56.6173 94.1302 57.7422 95.2738 58.4484V63.8187H85.9097V58.4484C87.045 57.7422 86.9372 56.6173 86.9372 55.4841V41.8943C86.9372 40.7612 87.045 39.6362 85.9097 38.9218V33.5598H97.9173L101.017 45.9507Z" fill="white"/>
<path d="M115.983 68.3349H104.829C104.289 68.3359 103.753 68.2413 103.246 68.0557C102.739 68.2398 102.203 68.3343 101.663 68.3349H98.6633C98.0957 68.3293 97.534 68.2208 97.0059 68.0147C96.4782 68.2222 95.9162 68.3308 95.3485 68.3349H85.9098C84.701 68.3349 83.5417 67.8591 82.687 67.0121C81.8322 66.1652 81.3521 65.0165 81.3521 63.8187V58.4484C81.3509 57.4029 81.7171 56.3897 82.3879 55.5827V41.7876C81.7171 40.9806 81.3509 39.9673 81.3521 38.9218V33.5598C81.3521 32.362 81.8322 31.2133 82.687 30.3663C83.5417 29.5194 84.701 29.0436 85.9098 29.0436H97.9174C99.1179 29.0449 100.27 29.5139 101.124 30.3492C101.978 29.5123 103.131 29.0432 104.331 29.0436H116.016C117.225 29.0436 118.384 29.5194 119.239 30.3663C120.093 31.2133 120.574 32.362 120.574 33.5598V38.9218C120.575 39.9673 120.209 40.9806 119.538 41.7876V55.5827C120.209 56.3897 120.575 57.4029 120.574 58.4484V63.8187C120.574 64.4145 120.455 65.0045 120.224 65.5546C119.992 66.1047 119.654 66.604 119.227 67.0238C118.8 67.4436 118.294 67.7756 117.737 68.0006C117.18 68.2256 116.584 68.3392 115.983 68.3349ZM109.826 59.3024H110.986C110.643 58.4543 110.446 57.5548 110.406 56.642C110.369 57.5553 110.173 58.4555 109.826 59.3024V59.3024ZM99.8068 50.2699L100.089 51.3538L100.329 50.3931C100.153 50.3662 99.979 50.3306 99.8068 50.2863V50.2699ZM106.577 42.8797C107.557 43.0438 108.457 43.5167 109.144 44.2283C109.831 44.9399 110.267 45.8522 110.389 46.8294V41.6234C110.339 40.4021 110.542 39.1837 110.986 38.0432H107.837L106.577 42.8797ZM90.8819 38.0761C91.3254 39.2166 91.5285 40.435 91.4786 41.6562V43.783C92.278 43.1769 93.2564 42.848 94.2629 42.8469C94.7152 42.8449 95.1651 42.9113 95.5971 43.0439L94.3458 38.0761H90.8819Z" fill="#172C87"/>
<path d="M120.416 39.5788C120.416 38.3307 120.532 37.1154 119.272 36.2942V30.3574H133.02C135.896 30.3574 139.758 30.3574 142.136 32.1146C145.998 35.0461 145.451 40.3917 145.451 41.2539V43.9062C145.451 50.27 143.329 54.2114 134.678 54.2114H130.932C130.932 55.8537 130.816 57.0936 132.076 57.8737V63.8105H119.272V57.8737C120.532 57.0936 120.416 55.8455 120.416 54.5891V39.5788ZM130.932 47.1496H131.918C135.026 47.1496 134.91 45.3924 134.91 42.2721C134.91 39.1518 135.026 37.3453 131.918 37.3453H130.932V47.1496Z" fill="white"/>
<path d="M132.076 68.3349H119.273C118.064 68.3349 116.905 67.8591 116.05 67.0121C115.195 66.1652 114.715 65.0165 114.715 63.8187V57.8819C114.713 56.7803 115.12 55.7166 115.858 54.8929V39.2585C115.12 38.4349 114.713 37.3711 114.715 36.2696V30.3328C114.715 29.135 115.195 27.9863 116.05 27.1393C116.905 26.2923 118.064 25.8165 119.273 25.8165H133.194C136.642 25.8165 141.349 25.8165 144.896 28.5099C147.382 30.382 150.249 34.0854 149.992 41.0897V43.8815C149.992 53.0618 145.5 58.0132 136.642 58.6619V63.8105C136.643 64.4049 136.526 64.9937 136.296 65.5432C136.067 66.0926 135.731 66.5918 135.307 67.0121C134.883 67.4325 134.379 67.7657 133.824 67.9927C133.27 68.2197 132.676 68.336 132.076 68.3349V68.3349ZM124.046 59.3024H127.344C126.626 57.8351 126.306 56.2079 126.416 54.5809V54.2196C126.415 53.541 126.568 52.8709 126.865 52.2594C127.162 51.6479 127.595 51.111 128.131 50.6887C127.596 50.264 127.164 49.7254 126.867 49.1128C126.57 48.5002 126.416 47.8292 126.416 47.1496V37.3535C126.416 36.4778 126.676 35.6214 127.162 34.8901H124.029C124.728 36.2612 125.048 37.7909 124.957 39.3242V54.8601C125.05 56.3961 124.729 57.929 124.029 59.3024H124.046ZM137.686 35.1528C139.476 37.1728 139.476 39.7101 139.468 41.9682V42.6252C139.468 44.9079 139.468 47.4863 137.578 49.5227C140.553 48.989 140.893 47.3385 140.893 43.939V41.2867C140.893 41.1718 140.893 41.0157 140.893 40.8187C140.893 39.8744 141.034 37.0086 139.36 35.7358C138.853 35.4191 138.281 35.2198 137.686 35.1528V35.1528Z" fill="#172C87"/>
<path d="M18.9359 40.638C18.9359 39.2667 19.2177 36.9265 17.0051 36.9265C14.7925 36.9265 15.0825 39.2667 15.0825 40.638V53.5544C15.0825 54.9175 14.8008 57.2578 17.0051 57.2578C19.2094 57.2578 18.9359 54.9175 18.9359 53.5544V49.769H29.1039V60.9282C26.3858 63.1535 22.0103 64.3606 17.7592 64.4838C13.508 64.6069 9.47234 63.6626 7.3592 61.7083C4.44224 59.015 4.55825 55.5087 4.55825 51.8547V40.2028C4.55825 37.1974 4.95602 34.2742 7.43378 32.246C9.72095 30.3656 13.4666 29.5527 17.4443 29.7087C21.5883 29.8643 25.6145 31.1176 29.1039 33.3381V42.6251H18.9359V40.638Z" fill="white"/>
<path d="M56.9721 63.8187H45.3705V58.4484C46.5141 57.7422 46.4063 56.6173 46.4063 55.4841V51.0336H42.8182V55.4841C42.8182 56.6173 42.7104 57.7422 43.854 58.4484V63.8187H32.2524V58.4484C33.396 57.7422 33.2883 56.6173 33.2883 55.4841V41.8943C33.2883 40.7612 33.396 39.6362 32.2524 38.9218V33.5598H43.854V38.9218C42.7104 39.6362 42.8182 40.7612 42.8182 41.8943V45.1789H46.4561V41.8943C46.4561 40.7612 46.5638 39.6362 45.4202 38.9218V33.5598H57.0218V38.9218C55.8865 39.6362 55.9942 40.7612 55.9942 41.8943V55.4841C55.9942 56.6173 55.8865 57.7422 57.0218 58.4484L56.9721 63.8187Z" fill="white"/>
<path d="M69.3358 63.8187H58.8198V58.4484C59.8557 57.7422 59.9634 56.1903 60.2452 55.0243L64.2726 33.5598H77.8133L82.2716 55.4841C82.4456 56.4367 82.8019 58.1364 83.8709 58.4484V63.8187H71.8633V58.4484C72.2017 58.3299 72.4921 58.1056 72.6909 57.8095C72.8896 57.5133 72.986 57.1612 72.9655 56.8062C72.9576 56.5084 72.9103 56.213 72.8246 55.9275H68.2254C68.1465 56.2145 68.0992 56.5091 68.0845 56.8062C68.06 57.183 68.1729 57.5561 68.4025 57.8575C68.6321 58.1589 68.9633 58.3686 69.3358 58.4484V63.8187ZM71.971 50.0154L70.4048 41.0404H70.3303L68.8303 50.0154H71.971Z" fill="white"/>
<path d="M101.017 45.9507H101.091L104.298 33.5598H115.983V38.9218C114.847 39.6362 114.947 40.7612 114.947 41.8943V55.4841C114.947 56.6173 114.847 57.7422 115.983 58.4484V63.8187H104.829V58.4484C105.972 57.7422 105.864 56.6173 105.864 55.4841V47.3631H105.798L101.655 63.7858H98.6548L94.3125 47.3631H94.2379V55.4841C94.2379 56.6173 94.1302 57.7422 95.2738 58.4484V63.8187H85.9097V58.4484C87.045 57.7422 86.9372 56.6173 86.9372 55.4841V41.8943C86.9372 40.7612 87.045 39.6362 85.9097 38.9218V33.5598H97.9173L101.017 45.9507Z" fill="white"/>
<path d="M120.416 39.5788C120.416 38.3307 120.532 37.1154 119.272 36.2942V30.3574H133.02C135.896 30.3574 139.758 30.3574 142.136 32.1146C145.998 35.0461 145.451 40.3917 145.451 41.2539V43.9062C145.451 50.27 143.329 54.2114 134.678 54.2114H130.932C130.932 55.8537 130.816 57.0936 132.076 57.8737V63.8105H119.272V57.8737C120.532 57.0936 120.416 55.8455 120.416 54.5891V39.5788ZM130.932 47.1496H131.918C135.026 47.1496 134.91 45.3924 134.91 42.2721C134.91 39.1518 135.026 37.3453 131.918 37.3453H130.932V47.1496Z" fill="white"/>
<path d="M141.357 9.58262C141.655 9.121 141.831 8.59296 141.87 8.04655C141.909 7.50014 141.81 6.9527 141.581 6.4541C141.325 5.95781 140.932 5.54378 140.448 5.26028C139.964 4.97679 139.408 4.83551 138.846 4.8529C138.551 4.8545 138.257 4.88474 137.968 4.94321C137.652 4.59693 137.27 4.31735 136.842 4.12122C136.415 3.9251 135.952 3.81647 135.482 3.80185C135.092 3.80162 134.707 3.87693 134.347 4.02354C133.802 4.26815 133.332 4.65167 132.985 5.13494C132.639 5.61821 132.428 6.18393 132.374 6.77435C131.622 7.12857 131.01 7.72076 130.634 8.45767C129.745 7.99214 128.775 7.69685 127.775 7.58727C125.911 7.43125 124.079 8.2606 122.24 10.1574C121.716 9.33702 120.976 8.67395 120.1 8.23981C119.223 7.80567 118.244 7.61695 117.267 7.69402C116.579 7.7088 115.894 7.78854 115.221 7.93216C115.105 7.95629 114.991 7.98923 114.881 8.03069C114.25 8.25477 113.719 8.69206 113.381 9.26572C113.043 9.83939 112.919 10.5127 113.033 11.1674C113.135 11.7616 113.425 12.3081 113.862 12.7276C113.778 13.6513 113.642 14.5696 113.455 15.4784L113.389 15.3963C112.146 13.8772 109.312 13.1135 108.077 13.1135C107.658 13.1009 107.241 13.1714 106.849 13.3209C106.458 13.4704 106.101 13.6958 105.798 13.9839C105.648 14.1342 105.517 14.3024 105.409 14.4848C104.423 13.7458 102.807 13.2367 100.221 13.2367H100.097C100.506 12.1142 100.721 10.9318 100.735 9.73864C100.735 8.97641 100.43 8.24542 99.8857 7.70645C99.3417 7.16747 98.604 6.86467 97.8348 6.86467C97.3997 6.86508 96.9703 6.96277 96.5786 7.15044C96.1869 7.33811 95.843 7.61092 95.5725 7.94857C93.7079 8.4741 87.7828 8.548 84.7996 8.58905C83.0759 8.58905 81.8578 8.63011 80.9545 8.66295C81.0266 8.06466 80.8922 7.4598 80.5733 6.94678C80.9109 6.53863 81.1542 6.06217 81.286 5.55087C81.423 5.06398 81.4395 4.55154 81.3342 4.05697C81.2289 3.56241 81.0049 3.10027 80.681 2.70972C78.3856 0.00818773 74.1344 -0.312055 72.3196 0.246317C70.7391 0.637003 69.364 1.60105 68.4662 2.94786C68.1139 3.12316 67.8 3.36576 67.5426 3.66169C67.2851 3.95762 67.0893 4.30106 66.9663 4.67225C66.7484 5.41062 66.7031 6.18846 66.8337 6.94678C66.9282 7.3371 67.0759 7.71284 67.2729 8.06354C66.4407 7.6489 65.5394 7.38737 64.6128 7.29167C62.7483 7.14387 60.9169 7.96501 59.0772 9.86183C58.5528 9.04206 57.8128 8.37949 56.9367 7.94544C56.0606 7.51138 55.0816 7.32227 54.1051 7.39842C53.417 7.4097 52.7315 7.48669 52.0583 7.62834L51.7103 7.73507C51.2052 7.91918 50.7629 8.24081 50.4341 8.66295C49.7203 7.20853 48.5599 6.01556 47.1194 5.25525C46.7072 5.08451 46.265 4.99659 45.8183 4.99659C45.3716 4.99659 44.9294 5.08451 44.5173 5.25525C44.1438 5.41529 43.8126 5.65861 43.5496 5.96625C43.2866 6.27389 43.0988 6.63755 43.0008 7.0289C42.6445 7.26703 41.1197 7.98142 36.015 7.98142C34.0262 7.98142 31.971 7.87467 30.3219 7.79255L29.1535 7.73507C24.9272 7.54621 19.5656 7.02069 16.7233 6.7415C15.9857 6.6676 15.4222 6.61012 15.0659 6.58548C14.7095 6.56085 14.5355 6.58548 14.2372 6.58548C10.2927 6.58548 7.20166 9.08995 7.20166 12.3334C7.20126 13.4208 7.51985 14.4848 8.11865 15.3959C8.71746 16.3071 9.57067 17.0261 10.5744 17.4655C11.0452 17.6615 11.5624 17.7213 12.0661 17.638C12.6749 17.534 13.2286 17.2245 13.6334 16.762C14.0382 16.2996 14.2691 15.7126 14.2869 15.1007C14.5935 14.8954 15.7371 14.3288 19.1016 14.2221C16.947 20.9718 14.8339 27.7215 14.3698 30.4723C14.1964 31.3395 14.2171 32.2337 14.4304 33.0921C14.6438 33.9505 15.0446 34.752 15.6045 35.4402C16.1302 36.0488 16.7838 36.5362 17.5196 36.8681C18.2554 37.2 19.0555 37.3685 19.8639 37.3616C21.3814 37.3509 22.8416 36.7867 23.9659 35.7769C24.5574 35.2243 25.0629 34.5878 25.4659 33.8882C25.6399 33.8882 25.7559 33.9375 26.0293 33.995L33.5455 35.473C43.4068 37.4273 56.9061 40.1042 62.7649 40.9007C64.0111 41.0776 65.2682 41.1681 66.5271 41.1717V41.1717C72.1124 41.1717 76.405 39.2256 78.3193 35.8015C78.5473 35.3879 78.7413 34.9568 78.8994 34.5123C79.0049 34.1914 79.0934 33.8652 79.1645 33.5351C79.2258 33.2039 79.2674 32.8694 79.2888 32.5334C79.7242 33.322 80.3689 33.9777 81.1533 34.4293C81.9377 34.8808 82.8318 35.1112 83.7389 35.0953C83.9154 35.1076 84.0927 35.1076 84.2692 35.0953C86.3741 34.9886 87.3685 34.0771 88.6032 32.8208C89.2248 32.9604 95.9951 34.5041 99.5253 35.3909C104.572 36.6473 109.743 38.1499 112.378 38.5523C113.181 38.6831 113.993 38.7517 114.806 38.7576C118.245 38.7576 120.98 37.3781 122.322 35.1364C123.214 35.6672 124.233 35.9508 125.272 35.9575C126.566 35.9008 127.811 35.4512 128.838 34.6698C129.866 33.8884 130.626 32.8129 131.015 31.5891C131.148 31.5891 131.289 31.5891 131.43 31.5891C135.747 31.5891 139.302 26.0054 139.973 24.8229C139.973 24.7572 140.04 24.6997 140.073 24.6258C140.268 24.1883 140.36 23.7122 140.342 23.2339C140.323 22.7557 140.194 22.2881 139.965 21.8668C139.746 21.4632 139.435 21.1157 139.057 20.852C138.678 20.5883 138.243 20.4156 137.786 20.3477H137.678C138.226 19.2831 138.638 18.1549 138.904 16.9893C139.031 16.1631 138.883 15.3185 138.482 14.5834H138.672C139.338 14.623 139.998 14.4486 140.555 14.086C141.112 13.7235 141.536 13.1923 141.763 12.5716C141.941 12.0774 141.998 11.5482 141.927 11.0282C141.856 10.5082 141.661 10.0125 141.357 9.58262Z" fill="#17298B"/>
<path d="M36.3548 22.5155C33.9349 26.5555 31.3824 28.4441 29.2277 28.4441C26.5841 28.4441 25.4404 26.301 25.4404 23.7801C25.4404 19.9618 28.0178 15.1992 32.0205 15.1992C34.0924 15.1992 35.0454 16.3406 35.0454 17.7283C35.0454 19.9043 32.5592 23.1478 29.0951 23.6898C29.2857 25.2253 30.0482 25.9232 31.0344 25.9232C32.4681 25.9232 34.3493 24.5355 35.841 22.2363C35.9054 22.1889 35.9847 22.1657 36.0647 22.1706C36.1082 22.1698 36.1514 22.1786 36.191 22.1965C36.2306 22.2144 36.2656 22.2409 36.2935 22.274C36.3213 22.3071 36.3413 22.346 36.3519 22.3878C36.3625 22.4296 36.3635 22.4733 36.3548 22.5155V22.5155ZM29.062 22.6797C31.0343 21.9489 33.0067 19.3952 33.0067 17.9829C33.0067 17.7651 32.9194 17.5562 32.764 17.4022C32.6086 17.2482 32.3978 17.1617 32.178 17.1617C30.7194 17.1289 29.1614 20.0275 29.062 22.6797Z" fill="#FFE100"/>
<path d="M49.3985 22.5155C49.4289 22.4648 49.4716 22.4225 49.5228 22.3924C49.6029 22.362 49.6914 22.362 49.7714 22.3924C49.8667 22.4007 49.9549 22.4459 50.0169 22.5181C50.0789 22.5903 50.1098 22.6837 50.1029 22.7783C50.1029 22.8358 50.1029 22.844 50.1029 22.8768C48.893 25.5866 46.5643 28.5509 44.5339 28.5509C43.0339 28.5509 42.0477 27.4177 42.0477 25.7098C41.1278 27.4752 39.7935 28.5509 38.451 28.5509C36.5781 28.5509 35.335 27.1303 35.335 25.02C35.335 22.0886 37.4565 18.9929 37.6057 16.3817C37.6057 16.2092 37.6057 16.0039 37.6554 15.7494C37.6614 15.708 37.6824 15.6703 37.7144 15.6431C37.7464 15.6159 37.7873 15.6012 37.8294 15.6016C40.5062 15.6016 41.0449 16.2174 40.9952 17.0714C40.9123 18.7712 38.9648 22.7208 38.9648 24.8968C38.9648 25.7755 39.3129 26.3749 39.9759 26.3749C41.0946 26.3749 42.0477 23.854 42.6195 21.8011C43.1913 19.7483 44.1029 16.6855 44.5587 15.5605C44.625 15.4045 44.8156 15.4209 45.0062 15.4292C45.835 15.4784 48.4786 16.4145 48.3212 17.17C46.6192 19.6159 45.6064 22.4675 45.3875 25.4306C45.3875 26.1203 45.578 26.5309 45.8681 26.5309C46.4565 26.4898 48.1471 24.6341 49.3985 22.5155Z" fill="#FFE100"/>
<path d="M74.1595 22.7126C74.2078 22.674 74.2638 22.6461 74.3238 22.6305C74.3838 22.6149 74.4464 22.6121 74.5075 22.6223C74.5623 22.6356 74.6135 22.6607 74.6575 22.6956C74.7015 22.7304 74.7374 22.7744 74.7626 22.8244C74.7878 22.8743 74.8018 22.9291 74.8036 22.985C74.8053 23.0408 74.7948 23.0964 74.7727 23.1478C73.165 25.9971 70.3805 28.9697 68.2755 28.6987C66.4357 28.4606 65.6484 26.9414 65.9882 25.2417C66.6144 22.2344 67.637 19.3218 69.0297 16.5787C69.3517 15.8546 69.7113 15.1475 70.107 14.4602C71.4578 13.8443 73.8943 15.1335 73.0324 17.1781C72.4523 18.5412 69.8087 23.3613 69.5352 25.6687C69.4689 26.2271 69.5352 26.5966 69.9578 26.6458C70.5462 26.7197 72.6926 24.9379 74.1595 22.7126Z" fill="#FFE100"/>
<path d="M45.6528 7.47229C45.2633 11.4055 34.4158 10.5762 29.0791 10.3216C23.7424 10.0671 16.5494 9.31163 14.8506 9.16383C12.3646 8.94212 9.92822 10.2395 9.92822 12.202C9.92892 12.7665 10.0923 13.3191 10.3991 13.7948C10.7059 14.2705 11.1434 14.6494 11.6602 14.8871V14.8871C11.5524 11.6026 17.5935 11.2413 22.8142 11.4712L22.7065 11.7668C21.4884 15.6508 17.6516 27.3027 17.0632 30.7761C16.4748 34.2495 20.2205 35.7029 22.3088 33.6419C22.3088 33.6419 21.6872 33.3627 21.5878 31.7615C21.3475 27.8446 24.1567 15.7247 25.2837 11.8654C25.306 11.7858 25.3366 11.7088 25.3749 11.6354C26.5682 11.7258 27.6372 11.8243 28.4659 11.8982C33.1314 12.317 41.2442 13.1381 43.1667 13.2859C46.0754 13.5076 48.3129 12.4648 48.3129 10.7076C48.2797 8.76969 45.6528 7.47229 45.6528 7.47229Z" fill="#FFE100"/>
<path d="M76.9435 4.77161L78.2529 4.83729L78.6507 5.01794L79.2225 4.07364C78.6816 3.56212 78.0773 3.12065 77.4242 2.75982C77.0264 2.68592 75.4353 2.20145 74.938 2.17682C74.2139 2.19856 73.4943 2.29768 72.7916 2.47244C72.2154 2.69989 71.6982 3.05256 71.2779 3.5045C70.8576 3.95643 70.5451 4.49609 70.3634 5.08364C70.077 5.08821 69.7966 5.16627 69.5497 5.31018C69.3028 5.45409 69.0978 5.65895 68.9546 5.90478C69.0395 5.92608 69.1185 5.96588 69.1859 6.02128C69.2533 6.07668 69.3073 6.14628 69.3441 6.22501C69.6287 6.5245 69.9988 6.73077 70.4049 6.81623C70.1668 7.32662 69.9942 7.86455 69.8911 8.41745C69.9233 9.40933 70.1222 10.3889 70.4794 11.3161C71.003 11.9803 71.7254 12.4632 72.543 12.6956C73.2998 12.8092 74.065 12.8587 74.8303 12.8434C75.1038 12.8434 75.601 12.3096 75.601 12.3096L73.9435 9.94475L74.1921 9.36175C74.5833 9.27306 74.9789 9.20454 75.3772 9.15647C75.8768 9.27488 76.3833 9.36264 76.8938 9.41924C77.2498 9.39793 77.6068 9.39793 77.9629 9.41924L78.2612 8.31892C78.2612 8.31892 77.043 7.61274 76.6037 7.34177L75.1369 6.41388L75.0789 6.0608L75.833 5.17396C76.1742 4.97157 76.551 4.83505 76.9435 4.77161V4.77161ZM70.1728 5.7734C70.1674 5.78023 70.1605 5.78576 70.1526 5.78956C70.1447 5.79336 70.136 5.79532 70.1272 5.79532C70.1184 5.79532 70.1098 5.79336 70.1019 5.78956C70.094 5.78576 70.0871 5.78023 70.0816 5.7734C70.048 5.74722 70.0094 5.72794 69.9681 5.71666C69.9269 5.70538 69.8838 5.70235 69.8413 5.70772C69.8165 5.71343 69.7932 5.72448 69.7732 5.74009C69.7531 5.7557 69.7368 5.77547 69.7253 5.79803C69.7039 5.80554 69.6805 5.80554 69.659 5.79803C69.6474 5.78583 69.6409 5.76967 69.6409 5.75287C69.6409 5.73607 69.6474 5.71992 69.659 5.70772C69.6794 5.66947 69.7077 5.63584 69.7419 5.60898C69.7761 5.58212 69.8156 5.56262 69.8579 5.5517C69.9191 5.54207 69.9816 5.54512 70.0415 5.56067C70.1014 5.57622 70.1574 5.60391 70.206 5.64201C70.2188 5.64844 70.2287 5.65934 70.2339 5.67263C70.2391 5.68592 70.2391 5.70064 70.2339 5.71393C70.2288 5.72722 70.2188 5.73814 70.206 5.74458C70.1932 5.75101 70.1784 5.75251 70.1645 5.74876L70.1728 5.7734ZM77.3579 8.43387C77.3652 8.44076 77.371 8.44905 77.3749 8.45822C77.3789 8.4674 77.3809 8.47727 77.3809 8.48724C77.3809 8.49721 77.3789 8.50709 77.3749 8.51626C77.371 8.52543 77.3652 8.53372 77.3579 8.54062L77.1507 8.63915H77.6065C77.6264 8.64273 77.6445 8.65273 77.658 8.66759C77.6715 8.68245 77.6796 8.70133 77.6811 8.72127C77.6811 8.74305 77.6724 8.76393 77.6568 8.77933C77.6413 8.79473 77.6202 8.80339 77.5982 8.80339H77.0181L77.3579 9.12362C77.3731 9.13897 77.3816 9.15961 77.3816 9.1811C77.3816 9.20259 77.3731 9.22324 77.3579 9.23859C77.3391 9.24485 77.3187 9.24485 77.2999 9.23859C77.2921 9.24224 77.2836 9.24412 77.275 9.24412C77.2664 9.24412 77.2579 9.24224 77.2501 9.23859L76.7778 8.78697L75.8413 8.7459C75.8308 8.74597 75.8204 8.74383 75.8107 8.73961C75.8011 8.73539 75.7925 8.7292 75.7854 8.72144C75.7784 8.71369 75.7731 8.70454 75.7699 8.6946C75.7666 8.68467 75.7656 8.67415 75.7667 8.66378C75.765 8.65293 75.766 8.64183 75.7696 8.63146C75.7733 8.62109 75.7796 8.6118 75.7878 8.60444C75.7961 8.59709 75.806 8.5919 75.8168 8.58936C75.8276 8.58681 75.8389 8.58699 75.8496 8.58988L76.8275 8.63915L77.2833 8.40104C77.2955 8.3965 77.3086 8.39485 77.3216 8.39628C77.3346 8.3977 77.347 8.40215 77.3579 8.40923V8.43387ZM75.5513 7.6538L76.2142 7.83445L76.927 7.77697C76.9481 7.77806 76.9684 7.7858 76.9848 7.79909C77.0012 7.81239 77.0128 7.83053 77.0181 7.85087C77.0182 7.87129 77.0106 7.89101 76.9968 7.9062C76.983 7.92138 76.964 7.93094 76.9435 7.93298H76.6949L77.0761 8.0233C77.0968 8.02907 77.1144 8.04258 77.1252 8.06096C77.136 8.07934 77.1392 8.10116 77.1341 8.12183C77.1333 8.13133 77.1303 8.14052 77.1254 8.14877C77.1206 8.15702 77.114 8.16412 77.1061 8.16959C77.0983 8.17506 77.0893 8.17877 77.0798 8.18044C77.0703 8.18212 77.0606 8.18174 77.0513 8.17932V8.17932L76.5706 8.05615L76.8606 8.26143C76.8741 8.27761 76.8815 8.29794 76.8815 8.31892C76.8815 8.3399 76.8741 8.36022 76.8606 8.3764C76.8503 8.38147 76.839 8.3841 76.8275 8.3841C76.816 8.3841 76.8047 8.38147 76.7944 8.3764H76.7446L76.1397 7.94118L75.5181 7.76875C75.4985 7.76144 75.482 7.74766 75.4714 7.72971C75.4609 7.71176 75.4569 7.69075 75.4601 7.67022C75.4687 7.65446 75.4823 7.64192 75.4987 7.63451C75.5152 7.62709 75.5336 7.62522 75.5513 7.62917V7.6538ZM78.717 4.36926C78.1527 4.47199 77.5742 4.47199 77.0098 4.36926C76.927 4.36926 77.0513 4.29535 77.0678 4.28714C77.1519 4.25368 77.2426 4.23962 77.333 4.24607C77.7823 4.32819 78.2429 4.32819 78.6922 4.24607C78.9159 4.1968 78.9408 4.29536 78.717 4.34463V4.36926ZM78.0789 3.86836C77.699 3.99031 77.3013 4.04858 76.9021 4.04079C76.6369 4.04079 76.7281 3.76161 76.9518 3.76982C77.314 3.77096 77.6744 3.71837 78.0209 3.61381C78.2529 3.51527 78.3026 3.77803 78.0789 3.84372V3.86836ZM77.4242 3.22787C77.648 3.1786 77.6811 3.32641 77.4242 3.38389C76.8669 3.50684 76.2933 3.54011 75.7253 3.48242C75.4684 3.48242 75.7667 3.30178 75.891 3.30999C76.4045 3.36049 76.9229 3.32439 77.4242 3.20324V3.22787ZM74.938 2.84194C74.9682 2.80446 75.0079 2.7756 75.053 2.75829C75.0981 2.74098 75.1471 2.73584 75.1949 2.7434C75.5205 2.76506 75.8474 2.73737 76.1645 2.66129C76.3966 2.59559 76.4463 2.83372 76.2142 2.8912C75.8292 2.9826 75.4321 3.0131 75.0375 2.98154C74.9712 2.94869 74.8966 2.89121 74.9463 2.8173L74.938 2.84194ZM75.0292 3.41674C74.4563 3.71281 73.8011 3.81381 73.1645 3.70414C72.9076 3.70414 73.1645 3.42495 73.3137 3.44137C73.8149 3.5318 74.3322 3.45982 74.7888 3.23609C74.9463 3.12934 75.2612 3.25252 75.0375 3.39211L75.0292 3.41674ZM72.5844 3.02259C72.996 2.90051 73.3911 2.72957 73.7612 2.51349C73.7986 2.4825 73.8431 2.46106 73.8907 2.45104C73.9384 2.44102 73.9878 2.44272 74.0347 2.456C74.1093 2.456 74.1424 2.56275 74.0347 2.61202C73.6169 2.86612 73.1687 3.0675 72.7004 3.21146C72.5596 3.26073 72.3524 3.12934 72.5927 2.99795L72.5844 3.02259ZM72.3772 9.50136C72.3786 9.77259 72.4667 10.0364 72.6291 10.2548C72.7914 10.4732 73.0195 10.6349 73.2806 10.7166C73.4297 10.7577 73.2143 10.8809 73.1231 10.8562C72.8396 10.7718 72.5901 10.601 72.4101 10.3681C72.2301 10.1352 72.1287 9.85204 72.1203 9.55882C72.1203 9.42743 72.3772 9.37819 72.3855 9.47672L72.3772 9.50136ZM72.9988 11.1436C72.9491 11.0697 73.1977 11.004 73.2391 11.0615C73.4612 11.3902 73.7926 11.6313 74.1756 11.743C74.2667 11.743 74.0264 11.8662 73.9601 11.8416C73.5638 11.7155 73.2258 11.4534 73.0071 11.1026L72.9988 11.1436ZM73.2474 11.8662C73.189 11.89 73.1235 11.89 73.0651 11.8662C72.8456 11.8213 72.6466 11.7077 72.4973 11.542C72.3481 11.3764 72.2566 11.1676 72.2363 10.9465C72.2363 10.8644 72.485 10.8234 72.4933 10.8973C72.5095 11.102 72.5914 11.2961 72.7272 11.4513C72.8629 11.6065 73.0452 11.7145 73.2474 11.7595C73.3386 11.7677 73.2723 11.8169 73.2557 11.8252L73.2474 11.8662ZM71.2253 9.29607C71.2253 9.22217 71.4822 9.21395 71.4822 9.23859C71.4354 9.51789 71.4663 9.80452 71.5714 10.0678C71.6765 10.3311 71.8519 10.561 72.0789 10.7331C72.0789 10.7331 71.8883 10.8398 71.8385 10.7987C71.6009 10.6243 71.418 10.3867 71.3109 10.1135C71.2038 9.8403 71.177 9.54266 71.2336 9.255L71.2253 9.29607ZM71.0347 10.807C70.7308 10.5919 70.4927 10.298 70.3465 9.95758C70.2003 9.61714 70.1516 9.24334 70.206 8.87729C70.206 8.79517 70.4711 8.75411 70.4629 8.87729C70.4095 9.22438 70.4531 9.57936 70.589 9.90363C70.7248 10.2279 70.9478 10.5091 71.2336 10.7166C71.3579 10.7166 71.1176 10.8069 71.043 10.7659L71.0347 10.807ZM72.4187 12.2932C72.2534 12.2818 72.0921 12.238 71.9441 12.1644C71.7961 12.0907 71.6643 11.9887 71.5563 11.8642C71.4484 11.7397 71.3665 11.5952 71.3154 11.439C71.2642 11.2829 71.2449 11.1183 71.2585 10.9548C71.2585 10.8398 71.5319 10.8152 71.5154 10.9548C71.5029 11.0968 71.519 11.2398 71.5629 11.3755C71.6067 11.5113 71.6773 11.6371 71.7706 11.7456C71.8639 11.8541 71.978 11.9431 72.1064 12.0075C72.2347 12.0719 72.3746 12.1104 72.5181 12.1208C72.7004 12.0961 72.5513 12.2686 72.427 12.2521L72.4187 12.2932ZM74.4325 12.6299C73.933 12.6987 73.4259 12.5752 73.0154 12.285C72.8993 12.2111 73.1397 12.1043 73.2225 12.1618C73.5619 12.4079 73.9807 12.5219 74.3993 12.4821C74.5651 12.4164 74.6065 12.5724 74.4408 12.5888L74.4325 12.6299ZM74.9214 12.4492C74.5868 12.4523 74.2565 12.3733 73.9601 12.2193C73.8192 12.1536 74.0181 12.0222 74.1176 12.0633C74.3713 12.2024 74.6563 12.2758 74.9463 12.2768C75.1369 12.2275 75.0706 12.3999 74.9297 12.4082L74.9214 12.4492ZM75.0955 12.0469L75.2032 12.1043C75.3026 12.1536 75.0623 12.2439 74.996 12.2111L74.8883 12.1536C74.7971 12.0715 75.0375 11.973 75.1369 12.0058L75.0955 12.0469ZM74.3828 11.1272C74.4058 11.2513 74.4575 11.3684 74.5336 11.4695C74.6098 11.5706 74.7085 11.653 74.822 11.7102C74.9131 11.7595 74.6728 11.8416 74.6148 11.8087C74.4894 11.7503 74.3797 11.6633 74.2947 11.5548C74.2098 11.4464 74.1519 11.3195 74.1258 11.1847C74.1258 11.0697 74.3828 11.0205 74.391 11.0861L74.3828 11.1272ZM73.9932 10.692C74.1093 10.7741 73.8772 10.8809 73.7861 10.8234C73.6173 10.699 73.4852 10.5322 73.4036 10.3401C73.322 10.148 73.2938 9.93779 73.322 9.73127C73.322 9.62453 73.5955 9.59989 73.5789 9.73127C73.5625 9.90776 73.5928 10.0854 73.6669 10.2467C73.7411 10.408 73.8564 10.5474 74.0015 10.6509L73.9932 10.692ZM74.2502 4.31999C73.9932 4.31999 74.2502 4.11469 74.4076 4.12291C74.8944 4.18637 75.3893 4.1094 75.833 3.90121C75.9573 3.84373 76.2971 3.90121 76.0651 4.00796C75.5004 4.2642 74.8744 4.35808 74.2584 4.27892L74.2502 4.31999ZM75.0375 4.91941C74.7806 4.87835 75.0375 4.66486 75.1949 4.68949C75.4038 4.7131 75.6154 4.68236 75.8086 4.60028C76.0019 4.5182 76.1703 4.38763 76.2971 4.22144C76.3883 4.1229 76.7612 4.14756 76.6037 4.31999C76.4095 4.5317 76.1661 4.69322 75.8946 4.79053C75.6231 4.88784 75.3317 4.91798 75.0458 4.87836L75.0375 4.91941Z" fill="#FFE100"/>
<path d="M76.554 32.8783C76.6602 32.2972 76.6602 31.702 76.554 31.121C76.0568 29.1913 75.0872 29.1667 74.8966 29.1585C74.706 29.1503 74.2502 29.216 73.7945 29.8729C72.3691 32.287 69.1953 34.2331 65.1347 34.5616C52.5139 35.5634 26.1203 29.4787 25.0844 29.3063C24.8276 29.2539 24.5619 29.2626 24.3091 29.3318C24.0564 29.4009 23.8238 29.5285 23.6304 29.704C23.4371 29.8795 23.2886 30.098 23.1971 30.3415C23.1055 30.585 23.0736 30.8465 23.1039 31.1046C23.207 31.4167 23.3864 31.6988 23.6259 31.9257C23.6757 31.975 24.3552 30.8336 26.5263 31.2278C35.8407 32.87 55.6794 37.0989 63.1127 38.1089C69.5764 38.9875 74.2585 37.3945 75.9407 34.3809C76.1 34.0978 76.2331 33.801 76.3385 33.4941C76.4228 33.2933 76.4948 33.0877 76.554 32.8783Z" fill="#FFE100"/>
<path d="M64.3641 9.85371C60.867 10.0672 57.1131 17.0961 54.7762 22.4007L56.2596 16.9976C56.7443 15.5171 57.0475 13.9843 57.1628 12.4321C57.1048 10.6995 55.7955 9.96868 54.2376 10.0179C53.7142 10.0307 53.1929 10.0884 52.6796 10.1904C53.1285 10.6249 53.3949 11.2116 53.4254 11.8326C53.7486 15.3225 50.0693 26.2518 49.9947 26.4571C49.7212 27.4753 51.6521 28.9205 53.7403 28.9944C53.7021 28.8274 53.6854 28.6564 53.6906 28.4853C53.6906 28.2882 53.6906 28.0747 53.6906 27.8448C53.7491 27.4365 53.8378 27.0331 53.9558 26.6377C55.0994 22.8769 59.0439 16.2832 61.7786 15.1993C60.1212 19.7977 58.9362 24.3796 58.9362 28.2635C58.9362 31.195 59.8312 33.1904 62.1846 33.1904C62.9461 33.1678 63.6754 32.8808 64.2449 32.3795C64.8145 31.8781 65.1881 31.1944 65.3005 30.4478C64.7287 31.0308 64.3475 31.0965 63.9995 31.0472C63.3945 30.9569 62.8227 30.2261 62.8227 28.748C62.8227 23.3203 66.2618 14.4274 67.6042 12.0708C68.002 11.34 66.5932 9.69769 64.3641 9.85371Z" fill="#FFE100"/>
<path d="M97.8591 9.51694C96.6493 11.3399 81.5424 10.5762 79.4707 11.5041C78.9645 11.7635 78.5413 12.1575 78.2485 12.6419C77.9558 13.1264 77.8051 13.6821 77.8133 14.2467C79.0398 13.4994 80.9623 13.4255 83.8544 13.4255C84.5588 13.4255 85.3212 13.4255 86.0835 13.4255H86.1416C83.8958 18.0732 81.7081 23.5337 81.2938 27.467C80.9871 30.382 81.6667 32.4512 84.0118 32.6894C84.7312 32.7979 85.4658 32.6414 86.0767 32.2495C86.6875 31.8576 87.1322 31.2575 87.3266 30.5626C87.3266 30.5216 87.3266 30.5626 87.2354 30.5626C87.0586 30.7333 86.8315 30.8436 86.5871 30.8775C86.3427 30.9115 86.0937 30.8674 85.8764 30.7515C85.3212 30.5216 84.8488 29.8072 84.7742 28.2881C84.6582 25.6112 87.0283 17.1124 88.7602 13.5077C91.0391 13.5651 93.2434 13.6883 94.7433 13.6883C95.3829 13.7335 96.0258 13.6809 96.6493 13.5323C97.5774 13.1217 98.1409 11.619 98.0829 9.96036C98.0746 9.69759 97.9171 9.44303 97.8591 9.51694Z" fill="#ABCD05"/>
<path d="M133.078 9.69763C132.954 9.04893 134.802 8.75333 134.91 8.49878C135.017 8.24422 134.835 6.68406 135.366 6.46235C135.896 6.24065 136.866 7.86648 137.023 7.91575C137.18 7.96502 138.954 7.19317 139.169 7.62016C139.385 8.04715 138.1 9.49233 138.208 9.76331C138.316 10.0343 139.393 11.11 139.236 11.5698C139.078 12.0297 137.263 11.5698 137.081 11.3728C136.899 11.1757 136.004 13.015 135.465 12.859C134.926 12.703 135.009 11.1264 134.993 10.8801C134.976 10.6337 133.219 10.5188 133.078 9.69763Z" fill="#ABCD05"/>
<path d="M119.62 29.6266C119.372 29.5773 119.082 29.6266 118.717 30.2178L118.676 30.2753C118.618 30.3615 118.551 30.4413 118.477 30.5134C117.565 31.5152 115.9 32.1146 113.811 32.2214C106.494 32.5991 90.5004 29.6102 89.8955 29.487C89.7461 29.4455 89.5888 29.4411 89.4373 29.4742C89.2858 29.5072 89.1449 29.5768 89.0269 29.6766C88.909 29.7764 88.8177 29.9035 88.761 30.0466C88.7044 30.1896 88.6842 30.3443 88.7022 30.497C88.7685 30.7515 89.0337 30.9076 89.0337 30.8501C89.0337 30.497 90.2187 30.5216 91.3871 30.8008C96.7736 32.0079 108.524 35.0133 112.833 35.7276C117.143 36.442 120.234 34.8326 120.524 32.0654C120.566 31.6943 120.566 31.3197 120.524 30.9486C120.292 29.7416 119.753 29.6512 119.62 29.6266Z" fill="#ABCD05"/>
<path d="M99.534 22.5155C97.1141 26.5555 94.5616 28.4441 92.4069 28.4441C89.7716 28.4441 88.6196 26.301 88.6196 23.7801C88.6196 19.9618 91.197 15.1992 95.208 15.1992C97.2798 15.1992 98.2329 16.3406 98.2329 17.7283C98.2329 19.9043 95.7467 23.1478 92.2826 23.6898C92.4732 25.2253 93.2356 25.9232 94.2218 25.9232C95.6555 25.9232 97.5368 24.5355 99.0285 22.2363C99.0922 22.1876 99.172 22.1642 99.2522 22.1706C99.2955 22.1694 99.3385 22.1781 99.3779 22.1961C99.4172 22.214 99.4519 22.2407 99.4792 22.2741C99.5064 22.3074 99.5255 22.3466 99.5351 22.3884C99.5446 22.4303 99.5442 22.4738 99.534 22.5155ZM92.2495 22.6797C94.2218 21.9489 96.1942 19.3952 96.1942 17.9829C96.1942 17.7651 96.1069 17.5562 95.9515 17.4022C95.7961 17.2482 95.5853 17.1617 95.3655 17.1617C93.9069 17.1289 92.3489 20.0275 92.2495 22.6797Z" fill="#ABCD05"/>
<path d="M112.586 22.5155C112.615 22.4668 112.655 22.4248 112.702 22.3924C112.785 22.3622 112.876 22.3622 112.958 22.3924C113.054 22.4007 113.142 22.4459 113.204 22.5181C113.266 22.5903 113.297 22.6837 113.29 22.7783C113.297 22.8108 113.297 22.8443 113.29 22.8768C112.088 25.5866 109.76 28.5509 107.721 28.5509C106.229 28.5509 105.276 27.4177 105.276 25.7098C104.356 27.4752 103.014 28.5509 101.679 28.5509C99.7983 28.5509 98.5635 27.1303 98.5635 25.02C98.5635 22.0886 100.685 18.9929 100.826 16.3817C100.826 16.2092 100.826 16.0039 100.884 15.7494C100.89 15.708 100.911 15.6703 100.943 15.6431C100.975 15.6159 101.016 15.6012 101.058 15.6016C103.735 15.6016 104.273 16.2174 104.224 17.0714C104.133 18.7712 102.193 22.7208 102.193 24.8968C102.193 25.7755 102.541 26.3749 103.204 26.3749C104.323 26.3749 105.276 23.854 105.848 21.8011C106.42 19.7483 107.323 16.6855 107.787 15.5605C107.854 15.4045 108.044 15.4209 108.235 15.4292C109.105 15.4784 111.699 16.4145 111.55 17.17C109.853 19.6182 108.844 22.4689 108.624 25.4306C108.624 26.1203 108.815 26.5309 109.105 26.5309C109.644 26.4898 111.334 24.6341 112.586 22.5155Z" fill="#ABCD05"/>
<path d="M127.551 9.85371C124.046 10.0672 120.3 17.0961 117.963 22.4007L119.447 16.9976C119.923 15.5151 120.226 13.9832 120.35 12.4321C120.292 10.6995 118.983 9.96868 117.425 10.0179C116.901 10.0302 116.38 10.0879 115.867 10.1904C116.316 10.6249 116.582 11.2116 116.612 11.8326C116.936 15.3225 113.256 26.2518 113.182 26.4571C112.908 27.4753 114.881 28.9205 116.919 28.9944C116.889 28.8262 116.873 28.656 116.869 28.4853C116.869 28.2882 116.869 28.0747 116.869 27.8448C116.924 27.4358 117.013 27.0321 117.135 26.6377C118.278 22.8769 122.223 16.2832 124.949 15.1993C123.292 19.7977 122.115 24.3796 122.115 28.2635C122.115 31.195 123.002 33.1904 125.355 33.1904C126.117 33.1694 126.847 32.8829 127.417 32.3813C127.987 31.8797 128.36 31.1951 128.471 30.4478C127.907 31.0308 127.526 31.0965 127.17 31.0472C126.573 30.9569 125.993 30.2261 125.993 28.748C125.993 23.3203 129.441 14.4274 130.783 12.0708C131.189 11.34 129.78 9.69769 127.551 9.85371Z" fill="#ABCD05"/>
<path d="M137.338 22.7126C137.387 22.6749 137.443 22.6475 137.503 22.632C137.563 22.6164 137.625 22.6131 137.686 22.6223C137.742 22.6347 137.794 22.659 137.839 22.6934C137.884 22.7279 137.921 22.7718 137.947 22.8219C137.973 22.8719 137.987 22.9271 137.99 22.9834C137.992 23.0397 137.982 23.0958 137.96 23.1478C136.352 25.9971 133.567 28.9697 131.463 28.6987C129.623 28.4606 128.835 26.9414 129.175 25.2417C129.801 22.2344 130.824 19.3218 132.217 16.5787C132.539 15.8546 132.898 15.1475 133.294 14.4602C134.645 13.8443 137.081 15.1335 136.211 17.1781C135.639 18.5412 132.996 23.3613 132.722 25.6687C132.656 26.2271 132.722 26.5966 133.145 26.6458C133.733 26.7197 135.88 24.9379 137.338 22.7126Z" fill="#ABCD05"/>
</g>
<defs>
<clipPath id="clip0_121_1784">
<rect width="150" height="69" fill="white"/>
</clipPath>
</defs>
</svg>
